<svg width="396" height="384" viewBox="0 0 396 384" fill="none" xmlns="http://www.w3.org/2000/svg">
<g clip-path="url(#clip0_172_1970)" filter="url(#filter0_d_172_1970)">
<path d="M123.068 0H108.154V15.0692H123.068V0Z" fill="#181425"/>
<path d="M137.982 0H123.068V15.0692H137.982V0Z" fill="#181425"/>
<path d="M152.894 0H137.98V15.0692H152.894V0Z" fill="#181425"/>
<path d="M167.808 0H152.895V15.0692H167.808V0Z" fill="#181425"/>
<path d="M182.722 0H167.809V15.0692H182.722V0Z" fill="#181425"/>
<path d="M197.634 0H182.721V15.0692H197.634V0Z" fill="#181425"/>
<path d="M212.548 0H197.635V15.0692H212.548V0Z" fill="#181425"/>
<path d="M227.222 0H212.309V15.0692H227.222V0Z" fill="#181425"/>
<path d="M242.134 0H227.221V15.0692H242.134V0Z" fill="#181425"/>
<path d="M93.2397 15.0693H78.3262V30.1385H93.2397V15.0693Z" fill="#181425"/>
<path d="M108.154 15.0693H93.2402V30.1385H108.154V15.0693Z" fill="#181425"/>
<path d="M123.068 15.0693H108.154V30.1385H123.068V15.0693Z" fill="#E45C00"/>
<path d="M137.982 15.0693H123.068V30.1385H137.982V15.0693Z" fill="#181425"/>
<path d="M152.894 15.0693H137.98V30.1385H152.894V15.0693Z" fill="#181425"/>
<path d="M167.808 15.0693H152.895V30.1385H167.808V15.0693Z" fill="#E45C00"/>
<path d="M182.722 15.0693H167.809V30.1385H182.722V15.0693Z" fill="#E45C00"/>
<path d="M197.634 15.0693H182.721V30.1385H197.634V15.0693Z" fill="#E45C00"/>
<path d="M212.548 15.0693H197.635V30.1385H212.548V15.0693Z" fill="#FF7C06"/>
<path d="M227.222 15.0693H212.309V30.1385H227.222V15.0693Z" fill="#FF7C06"/>
<path d="M242.134 15.0693H227.221V30.1385H242.134V15.0693Z" fill="#181425"/>
<path d="M257.048 15.0693H242.135V30.1385H257.048V15.0693Z" fill="#181425"/>
<path d="M271.962 15.0693H257.049V30.1385H271.962V15.0693Z" fill="#181425"/>
<path d="M78.5678 30.1387H63.6543V45.2078H78.5678V30.1387Z" fill="#181425"/>
<path d="M93.2397 30.1387H78.3262V45.2078H93.2397V30.1387Z" fill="white"/>
<path d="M108.154 30.1387H93.2402V45.2078H108.154V30.1387Z" fill="white"/>
<path d="M123.068 30.1387H108.154V45.2078H123.068V30.1387Z" fill="#181425"/>
<path d="M137.982 30.1387H123.068V45.2078H137.982V30.1387Z" fill="white"/>
<path d="M152.894 30.1387H137.98V45.2078H152.894V30.1387Z" fill="#181425"/>
<path d="M167.808 30.1387H152.895V45.2078H167.808V30.1387Z" fill="#181425"/>
<path d="M182.722 30.1387H167.809V45.2078H182.722V30.1387Z" fill="#181425"/>
<path d="M197.634 30.1387H182.721V45.2078H197.634V30.1387Z" fill="#181425"/>
<path d="M212.548 30.1387H197.635V45.2078H212.548V30.1387Z" fill="#181425"/>
<path d="M227.222 30.1387H212.309V45.2078H227.222V30.1387Z" fill="#181425"/>
<path d="M242.134 30.1387H227.221V45.2078H242.134V30.1387Z" fill="#181425"/>
<path d="M257.048 30.1387H242.135V45.2078H257.048V30.1387Z" fill="white"/>
<path d="M271.962 30.1387H257.049V45.2078H271.962V30.1387Z" fill="white"/>
<path d="M286.874 30.1387H271.961V45.2078H286.874V30.1387Z" fill="#181425"/>
<path d="M63.6537 45.207H48.7402V60.2762H63.6537V45.207Z" fill="#181425"/>
<path d="M78.5678 45.207H63.6543V60.2762H78.5678V45.207Z" fill="white"/>
<path d="M93.2397 45.207H78.3262V60.2762H93.2397V45.207Z" fill="white"/>
<path d="M108.154 45.207H93.2402V60.2762H108.154V45.207Z" fill="#181425"/>
<path d="M123.068 45.207H108.154V60.2762H123.068V45.207Z" fill="white"/>
<path d="M137.982 45.207H123.068V60.2762H137.982V45.207Z" fill="#C6C6C6"/>
<path d="M152.894 45.207H137.98V60.2762H152.894V45.207Z" fill="#181425"/>
<path d="M167.808 45.207H152.895V60.2762H167.808V45.207Z" fill="#E45C00"/>
<path d="M182.722 45.207H167.809V60.2762H182.722V45.207Z" fill="#E45C00"/>
<path d="M197.634 45.207H182.721V60.2762H197.634V45.207Z" fill="#FF7C06"/>
<path d="M212.548 45.207H197.635V60.2762H212.548V45.207Z" fill="#FF7C06"/>
<path d="M227.222 45.207H212.309V60.2762H227.222V45.207Z" fill="#FF7C06"/>
<path d="M242.134 45.207H227.221V60.2762H242.134V45.207Z" fill="#FF7C06"/>
<path d="M257.048 45.207H242.135V60.2762H257.048V45.207Z" fill="#181425"/>
<path d="M271.962 45.207H257.049V60.2762H271.962V45.207Z" fill="#C6C6C6"/>
<path d="M286.874 45.207H271.961V60.2762H286.874V45.207Z" fill="white"/>
<path d="M301.788 45.207H286.875V60.2762H301.788V45.207Z" fill="#181425"/>
<path d="M48.7397 60.2764H33.8262V75.3455H48.7397V60.2764Z" fill="#181425"/>
<path d="M63.6537 60.2764H48.7402V75.3455H63.6537V60.2764Z" fill="#181425"/>
<path d="M78.5678 60.2764H63.6543V75.3455H78.5678V60.2764Z" fill="#181425"/>
<path d="M93.2397 60.2764H78.3262V75.3455H93.2397V60.2764Z" fill="#181425"/>
<path d="M108.154 60.2764H93.2402V75.3455H108.154V60.2764Z" fill="white"/>
<path d="M123.068 60.2764H108.154V75.3455H123.068V60.2764Z" fill="#C6C6C6"/>
<path d="M137.982 60.2764H123.068V75.3455H137.982V60.2764Z" fill="#181425"/>
<path d="M152.894 60.2764H137.98V75.3455H152.894V60.2764Z" fill="#E45C00"/>
<path d="M167.808 60.2764H152.895V75.3455H167.808V60.2764Z" fill="#FF7C06"/>
<path d="M182.722 60.2764H167.809V75.3455H182.722V60.2764Z" fill="#FF7C06"/>
<path d="M197.634 60.2764H182.721V75.3455H197.634V60.2764Z" fill="#FF7C06"/>
<path d="M212.548 60.2764H197.635V75.3455H212.548V60.2764Z" fill="#FF7C06"/>
<path d="M227.222 60.2764H212.309V75.3455H227.222V60.2764Z" fill="#FF7C06"/>
<path d="M242.134 60.2764H227.221V75.3455H242.134V60.2764Z" fill="#FF7C06"/>
<path d="M257.048 60.2764H242.135V75.3455H257.048V60.2764Z" fill="#FF7C06"/>
<path d="M271.962 60.2764H257.049V75.3455H271.962V60.2764Z" fill="#181425"/>
<path d="M286.874 60.2764H271.961V75.3455H286.874V60.2764Z" fill="white"/>
<path d="M301.788 60.2764H286.875V75.3455H301.788V60.2764Z" fill="#181425"/>
<path d="M316.703 60.2764H301.789V75.3455H316.703V60.2764Z" fill="#181425"/>
<path d="M48.7397 75.1025H33.8262V90.1717H48.7397V75.1025Z" fill="#181425"/>
<path d="M63.6537 75.1025H48.7402V90.1717H63.6537V75.1025Z" fill="#E45C00"/>
<path d="M78.5678 75.1025H63.6543V90.1717H78.5678V75.1025Z" fill="#E45C00"/>
<path d="M93.2397 75.1025H78.3262V90.1717H93.2397V75.1025Z" fill="#181425"/>
<path d="M108.154 75.1025H93.2402V90.1717H108.154V75.1025Z" fill="#181425"/>
<path d="M123.068 75.1025H108.154V90.1717H123.068V75.1025Z" fill="#181425"/>
<path d="M137.982 75.1025H123.068V90.1717H137.982V75.1025Z" fill="#E45C00"/>
<path d="M152.894 75.1025H137.98V90.1717H152.894V75.1025Z" fill="#FF7C06"/>
<path d="M167.808 75.1025H152.895V90.1717H167.808V75.1025Z" fill="#181425"/>
<path d="M182.722 75.1025H167.809V90.1717H182.722V75.1025Z" fill="#181425"/>
<path d="M197.634 75.1025H182.721V90.1717H197.634V75.1025Z" fill="#FF7C06"/>
<path d="M212.548 75.1025H197.635V90.1717H212.548V75.1025Z" fill="#FF7C06"/>
<path d="M227.222 75.1025H212.309V90.1717H227.222V75.1025Z" fill="#FF7C06"/>
<path d="M242.134 75.1025H227.221V90.1717H242.134V75.1025Z" fill="#FF7C06"/>
<path d="M257.048 75.1025H242.135V90.1717H257.048V75.1025Z" fill="#181425"/>
<path d="M271.962 75.1025H257.049V90.1717H271.962V75.1025Z" fill="#FF7C06"/>
<path d="M286.874 75.1025H271.961V90.1717H286.874V75.1025Z" fill="#181425"/>
<path d="M301.788 75.1025H286.875V90.1717H301.788V75.1025Z" fill="#FF7C06"/>
<path d="M316.703 75.1025H301.789V90.1717H316.703V75.1025Z" fill="#181425"/>
<path d="M33.8276 90.1719H18.9141V105.241H33.8276V90.1719Z" fill="#181425"/>
<path d="M48.7397 90.1719H33.8262V105.241H48.7397V90.1719Z" fill="#E45C00"/>
<path d="M63.6537 90.1719H48.7402V105.241H63.6537V90.1719Z" fill="#E45C00"/>
<path d="M78.5678 90.1719H63.6543V105.241H78.5678V90.1719Z" fill="#181425"/>
<path d="M93.2397 90.1719H78.3262V105.241H93.2397V90.1719Z" fill="#FF7C06"/>
<path d="M108.154 90.1719H93.2402V105.241H108.154V90.1719Z" fill="#181425"/>
<path d="M123.068 90.1719H108.154V105.241H123.068V90.1719Z" fill="#E45C00"/>
<path d="M137.982 90.1719H123.068V105.241H137.982V90.1719Z" fill="#E45C00"/>
<path d="M152.894 90.1719H137.98V105.241H152.894V90.1719Z" fill="#FF7C06"/>
<path d="M167.808 90.1719H152.895V105.241H167.808V90.1719Z" fill="#FF7C06"/>
<path d="M182.722 90.1719H167.809V105.241H182.722V90.1719Z" fill="#FF7C06"/>
<path d="M197.634 90.1719H182.721V105.241H197.634V90.1719Z" fill="#FF7C06"/>
<path d="M212.548 90.1719H197.635V105.241H212.548V90.1719Z" fill="#FF7C06"/>
<path d="M227.222 90.1719H212.309V105.241H227.222V90.1719Z" fill="#FF7C06"/>
<path d="M242.134 90.1719H227.221V105.241H242.134V90.1719Z" fill="#FF7C06"/>
<path d="M257.048 90.1719H242.135V105.241H257.048V90.1719Z" fill="#FF7C06"/>
<path d="M271.962 90.1719H257.049V105.241H271.962V90.1719Z" fill="#FF7C06"/>
<path d="M286.874 90.1719H271.961V105.241H286.874V90.1719Z" fill="#FF7C06"/>
<path d="M301.788 90.1719H286.875V105.241H301.788V90.1719Z" fill="#181425"/>
<path d="M316.703 90.1719H301.789V105.241H316.703V90.1719Z" fill="#FF7C06"/>
<path d="M331.617 90.1719H316.703V105.241H331.617V90.1719Z" fill="#181425"/>
<path d="M33.8276 105.241H18.9141V120.31H33.8276V105.241Z" fill="#181425"/>
<path d="M48.7397 105.241H33.8262V120.31H48.7397V105.241Z" fill="#181425"/>
<path d="M63.6537 105.241H48.7402V120.31H63.6537V105.241Z" fill="#181425"/>
<path d="M78.5678 105.241H63.6543V120.31H78.5678V105.241Z" fill="#181425"/>
<path d="M93.2397 105.241H78.3262V120.31H93.2397V105.241Z" fill="#FF7C06"/>
<path d="M108.154 105.241H93.2402V120.31H108.154V105.241Z" fill="#181425"/>
<path d="M123.068 105.241H108.154V120.31H123.068V105.241Z" fill="#E45C00"/>
<path d="M137.982 105.241H123.068V120.31H137.982V105.241Z" fill="#181425"/>
<path d="M152.894 105.241H137.98V120.31H152.894V105.241Z" fill="#181425"/>
<path d="M167.808 105.241H152.895V120.31H167.808V105.241Z" fill="#181425"/>
<path d="M182.722 105.241H167.809V120.31H182.722V105.241Z" fill="#181425"/>
<path d="M197.634 105.241H182.721V120.31H197.634V105.241Z" fill="#FF7C06"/>
<path d="M212.548 105.241H197.635V120.31H212.548V105.241Z" fill="#FF7C06"/>
<path d="M227.222 105.241H212.309V120.31H227.222V105.241Z" fill="#FF7C06"/>
<path d="M242.134 105.241H227.221V120.31H242.134V105.241Z" fill="#FF7C06"/>
<path d="M257.048 105.241H242.135V120.31H257.048V105.241Z" fill="#FF7C06"/>
<path d="M271.962 105.241H257.049V120.31H271.962V105.241Z" fill="#181425"/>
<path d="M286.874 105.241H271.961V120.31H286.874V105.241Z" fill="#181425"/>
<path d="M301.788 105.241H286.875V120.31H301.788V105.241Z" fill="#181425"/>
<path d="M316.703 105.241H301.789V120.31H316.703V105.241Z" fill="#FF7C06"/>
<path d="M331.617 105.241H316.703V120.31H331.617V105.241Z" fill="#181425"/>
<path d="M18.9135 120.311H4V135.38H18.9135V120.311Z" fill="#181425"/>
<path d="M33.8276 120.311H18.9141V135.38H33.8276V120.311Z" fill="#C6C6C6"/>
<path d="M48.7397 120.311H33.8262V135.38H48.7397V120.311Z" fill="white"/>
<path d="M63.6537 120.311H48.7402V135.38H63.6537V120.311Z" fill="#181425"/>
<path d="M78.5678 120.311H63.6543V135.38H78.5678V120.311Z" fill="white"/>
<path d="M93.2397 120.311H78.3262V135.38H93.2397V120.311Z" fill="#181425"/>
<path d="M108.154 120.311H93.2402V135.38H108.154V120.311Z" fill="#181425"/>
<path d="M123.068 120.311H108.154V135.38H123.068V120.311Z" fill="#181425"/>
<path d="M137.982 120.311H123.068V135.38H137.982V120.311Z" fill="#181425"/>
<path d="M152.894 120.311H137.98V135.38H152.894V120.311Z" fill="#181425"/>
<path d="M167.808 120.311H152.895V135.38H167.808V120.311Z" fill="#181425"/>
<path d="M182.722 120.311H167.809V135.38H182.722V120.311Z" fill="#181425"/>
<path d="M197.634 120.311H182.721V135.38H197.634V120.311Z" fill="#181425"/>
<path d="M212.548 120.311H197.635V135.38H212.548V120.311Z" fill="#FF7C06"/>
<path d="M227.222 120.311H212.309V135.38H227.222V120.311Z" fill="#FF7C06"/>
<path d="M242.134 120.311H227.221V135.38H242.134V120.311Z" fill="#FF7C06"/>
<path d="M257.048 120.311H242.135V135.38H257.048V120.311Z" fill="#181425"/>
<path d="M271.962 120.311H257.049V135.38H271.962V120.311Z" fill="#181425"/>
<path d="M286.874 120.311H271.961V135.38H286.874V120.311Z" fill="#181425"/>
<path d="M301.788 120.311H286.875V135.38H301.788V120.311Z" fill="#181425"/>
<path d="M316.703 120.311H301.789V135.38H316.703V120.311Z" fill="#181425"/>
<path d="M331.617 120.311H316.703V135.38H331.617V120.311Z" fill="white"/>
<path d="M346.529 120.311H331.615V135.38H346.529V120.311Z" fill="#181425"/>
<path d="M18.9135 135.38H4V150.449H18.9135V135.38Z" fill="#181425"/>
<path d="M33.8276 135.38H18.9141V150.449H33.8276V135.38Z" fill="#C6C6C6"/>
<path d="M48.7397 135.38H33.8262V150.449H48.7397V135.38Z" fill="white"/>
<path d="M63.6537 135.38H48.7402V150.449H63.6537V135.38Z" fill="#181425"/>
<path d="M78.5678 135.38H63.6543V150.449H78.5678V135.38Z" fill="white"/>
<path d="M93.2397 135.38H78.3262V150.449H93.2397V135.38Z" fill="#181425"/>
<path d="M108.154 135.38H93.2402V150.449H108.154V135.38Z" fill="#181425"/>
<path d="M123.068 135.38H108.154V150.449H123.068V135.38Z" fill="#181425"/>
<path d="M137.982 135.38H123.068V150.449H137.982V135.38Z" fill="#181425"/>
<path d="M152.894 135.38H137.98V150.449H152.894V135.38Z" fill="white"/>
<path d="M167.808 135.38H152.895V150.449H167.808V135.38Z" fill="#3978A8"/>
<path d="M182.722 135.38H167.809V150.449H182.722V135.38Z" fill="#3978A8"/>
<path d="M197.634 135.38H182.721V150.449H197.634V135.38Z" fill="#181425"/>
<path d="M212.548 135.38H197.635V150.449H212.548V135.38Z" fill="#181425"/>
<path d="M227.222 135.38H212.309V150.449H227.222V135.38Z" fill="#181425"/>
<path d="M242.134 135.38H227.221V150.449H242.134V135.38Z" fill="#181425"/>
<path d="M257.048 135.38H242.135V150.449H257.048V135.38Z" fill="#181425"/>
<path d="M271.962 135.38H257.049V150.449H271.962V135.38Z" fill="#181425"/>
<path d="M286.874 135.38H271.961V150.449H286.874V135.38Z" fill="#3978A8"/>
<path d="M301.788 135.38H286.875V150.449H301.788V135.38Z" fill="#3978A8"/>
<path d="M316.703 135.38H301.789V150.449H316.703V135.38Z" fill="#181425"/>
<path d="M331.617 135.38H316.703V150.449H331.617V135.38Z" fill="white"/>
<path d="M346.529 135.38H331.615V150.449H346.529V135.38Z" fill="#181425"/>
<path d="M18.9135 150.448H4V165.517H18.9135V150.448Z" fill="#181425"/>
<path d="M33.8276 150.448H18.9141V165.517H33.8276V150.448Z" fill="#C6C6C6"/>
<path d="M48.7397 150.448H33.8262V165.517H48.7397V150.448Z" fill="white"/>
<path d="M63.6537 150.448H48.7402V165.517H63.6537V150.448Z" fill="#181425"/>
<path d="M78.5678 150.448H63.6543V165.517H78.5678V150.448Z" fill="white"/>
<path d="M93.2397 150.448H78.3262V165.517H93.2397V150.448Z" fill="#181425"/>
<path d="M108.154 150.448H93.2402V165.517H108.154V150.448Z" fill="#E45C00"/>
<path d="M123.068 150.448H108.154V165.517H123.068V150.448Z" fill="#181425"/>
<path d="M137.982 150.448H123.068V165.517H137.982V150.448Z" fill="white"/>
<path d="M152.894 150.448H137.98V165.517H152.894V150.448Z" fill="white"/>
<path d="M167.808 150.448H152.895V165.517H167.808V150.448Z" fill="#3978A8"/>
<path d="M182.722 150.448H167.809V165.517H182.722V150.448Z" fill="#394778"/>
<path d="M197.634 150.448H182.721V165.517H197.634V150.448Z" fill="white"/>
<path d="M212.548 150.448H197.635V165.517H212.548V150.448Z" fill="#181425"/>
<path d="M227.222 150.448H212.309V165.517H227.222V150.448Z" fill="#181425"/>
<path d="M242.134 150.448H227.221V165.517H242.134V150.448Z" fill="#181425"/>
<path d="M257.048 150.448H242.135V165.517H257.048V150.448Z" fill="#181425"/>
<path d="M271.962 150.448H257.049V165.517H271.962V150.448Z" fill="white"/>
<path d="M286.874 150.448H271.961V165.517H286.874V150.448Z" fill="#394778"/>
<path d="M301.788 150.448H286.875V165.517H301.788V150.448Z" fill="#3978A8"/>
<path d="M316.703 150.448H301.789V165.517H316.703V150.448Z" fill="#181425"/>
<path d="M331.617 150.448H316.703V165.517H331.617V150.448Z" fill="white"/>
<path d="M346.529 150.448H331.615V165.517H346.529V150.448Z" fill="#181425"/>
<path d="M18.9135 165.518H4V180.587H18.9135V165.518Z" fill="#181425"/>
<path d="M33.8276 165.518H18.9141V180.587H33.8276V165.518Z" fill="#C6C6C6"/>
<path d="M48.7397 165.518H33.8262V180.587H48.7397V165.518Z" fill="white"/>
<path d="M63.6537 165.518H48.7402V180.587H63.6537V165.518Z" fill="#181425"/>
<path d="M78.5678 165.518H63.6543V180.587H78.5678V165.518Z" fill="white"/>
<path d="M93.2397 165.518H78.3262V180.587H93.2397V165.518Z" fill="#181425"/>
<path d="M108.154 165.518H93.2402V180.587H108.154V165.518Z" fill="#E45C00"/>
<path d="M123.068 165.518H108.154V180.587H123.068V165.518Z" fill="#181425"/>
<path d="M137.982 165.518H123.068V180.587H137.982V165.518Z" fill="#181425"/>
<path d="M152.894 165.518H137.98V180.587H152.894V165.518Z" fill="white"/>
<path d="M167.808 165.518H152.895V180.587H167.808V165.518Z" fill="white"/>
<path d="M182.722 165.518H167.809V180.587H182.722V165.518Z" fill="#394778"/>
<path d="M197.634 165.518H182.721V180.587H197.634V165.518Z" fill="#181425"/>
<path d="M212.548 165.518H197.635V180.587H212.548V165.518Z" fill="#181425"/>
<path d="M227.222 165.518H212.309V180.587H227.222V165.518Z" fill="#FF7C06"/>
<path d="M242.134 165.518H227.221V180.587H242.134V165.518Z" fill="#FF7C06"/>
<path d="M257.048 165.518H242.135V180.587H257.048V165.518Z" fill="#181425"/>
<path d="M271.962 165.518H257.049V180.587H271.962V165.518Z" fill="#181425"/>
<path d="M286.874 165.518H271.961V180.587H286.874V165.518Z" fill="#394778"/>
<path d="M301.788 165.518H286.875V180.587H301.788V165.518Z" fill="#181425"/>
<path d="M316.703 165.518H301.789V180.587H316.703V165.518Z" fill="#181425"/>
<path d="M331.617 165.518H316.703V180.587H331.617V165.518Z" fill="white"/>
<path d="M346.529 165.518H331.615V180.587H346.529V165.518Z" fill="#181425"/>
<path d="M33.8276 180.587H18.9141V195.656H33.8276V180.587Z" fill="#181425"/>
<path d="M48.7397 180.587H33.8262V195.656H48.7397V180.587Z" fill="#181425"/>
<path d="M63.6537 180.587H48.7402V195.656H63.6537V180.587Z" fill="#181425"/>
<path d="M78.5678 180.587H63.6543V195.656H78.5678V180.587Z" fill="#181425"/>
<path d="M93.2397 180.587H78.3262V195.656H93.2397V180.587Z" fill="#FF7C06"/>
<path d="M108.154 180.587H93.2402V195.656H108.154V180.587Z" fill="#181425"/>
<path d="M123.068 180.587H108.154V195.656H123.068V180.587Z" fill="#E45C00"/>
<path d="M137.982 180.587H123.068V195.656H137.982V180.587Z" fill="#181425"/>
<path d="M152.894 180.587H137.98V195.656H152.894V180.587Z" fill="#181425"/>
<path d="M167.808 180.587H152.895V195.656H167.808V180.587Z" fill="#181425"/>
<path d="M182.722 180.587H167.809V195.656H182.722V180.587Z" fill="#181425"/>
<path d="M197.634 180.587H182.721V195.656H197.634V180.587Z" fill="#181425"/>
<path d="M212.548 180.587H197.635V195.656H212.548V180.587Z" fill="#FF7C06"/>
<path d="M227.222 180.587H212.309V195.656H227.222V180.587Z" fill="#FF7C06"/>
<path d="M242.134 180.587H227.221V195.656H242.134V180.587Z" fill="#FF7C06"/>
<path d="M257.048 180.587H242.135V195.656H257.048V180.587Z" fill="#FF7C06"/>
<path d="M271.962 180.587H257.049V195.656H271.962V180.587Z" fill="#181425"/>
<path d="M286.874 180.587H271.961V195.656H286.874V180.587Z" fill="#181425"/>
<path d="M301.788 180.587H286.875V195.656H301.788V180.587Z" fill="#181425"/>
<path d="M316.703 180.587H301.789V195.656H316.703V180.587Z" fill="#FF7C06"/>
<path d="M331.617 180.587H316.703V195.656H331.617V180.587Z" fill="#181425"/>
<path d="M33.8276 195.656H18.9141V210.725H33.8276V195.656Z" fill="#181425"/>
<path d="M48.7397 195.656H33.8262V210.725H48.7397V195.656Z" fill="#262B44"/>
<path d="M63.6537 195.656H48.7402V210.725H63.6537V195.656Z" fill="#262B44"/>
<path d="M78.5678 195.656H63.6543V210.725H78.5678V195.656Z" fill="#181425"/>
<path d="M93.2397 195.656H78.3262V210.725H93.2397V195.656Z" fill="#FF7C06"/>
<path d="M108.154 195.656H93.2402V210.725H108.154V195.656Z" fill="#181425"/>
<path d="M123.068 195.656H108.154V210.725H123.068V195.656Z" fill="#E45C00"/>
<path d="M137.982 195.656H123.068V210.725H137.982V195.656Z" fill="#E45C00"/>
<path d="M152.894 195.656H137.98V210.725H152.894V195.656Z" fill="#181425"/>
<path d="M167.808 195.656H152.895V210.725H167.808V195.656Z" fill="#181425"/>
<path d="M182.722 195.656H167.809V210.725H182.722V195.656Z" fill="#181425"/>
<path d="M197.634 195.656H182.721V210.725H197.634V195.656Z" fill="#FF7C06"/>
<path d="M212.548 195.656H197.635V210.725H212.548V195.656Z" fill="#FF7C06"/>
<path d="M227.222 195.656H212.309V210.725H227.222V195.656Z" fill="#FF7C06"/>
<path d="M242.134 195.656H227.221V210.725H242.134V195.656Z" fill="#FF7C06"/>
<path d="M257.048 195.656H242.135V210.725H257.048V195.656Z" fill="#181425"/>
<path d="M271.962 195.656H257.049V210.725H271.962V195.656Z" fill="#FF7C06"/>
<path d="M286.874 195.656H271.961V210.725H286.874V195.656Z" fill="#181425"/>
<path d="M301.788 195.656H286.875V210.725H301.788V195.656Z" fill="#181425"/>
<path d="M316.703 195.656H301.789V210.725H316.703V195.656Z" fill="#FF7C06"/>
<path d="M331.617 195.656H316.703V210.725H331.617V195.656Z" fill="#181425"/>
<path d="M18.9135 210.482H4V225.552H18.9135V210.482Z" fill="#181425"/>
<path d="M33.8276 210.482H18.9141V225.552H33.8276V210.482Z" fill="#262B44"/>
<path d="M48.7397 210.482H33.8262V225.552H48.7397V210.482Z" fill="#262B44"/>
<path d="M63.6537 210.482H48.7402V225.552H63.6537V210.482Z" fill="#181425"/>
<path d="M78.5678 210.482H63.6543V225.552H78.5678V210.482Z" fill="#E45C00"/>
<path d="M93.2397 210.482H78.3262V225.552H93.2397V210.482Z" fill="#181425"/>
<path d="M108.154 210.482H93.2402V225.552H108.154V210.482Z" fill="#181425"/>
<path d="M123.068 210.482H108.154V225.552H123.068V210.482Z" fill="#181425"/>
<path d="M137.982 210.482H123.068V225.552H137.982V210.482Z" fill="#E45C00"/>
<path d="M152.894 210.482H137.98V225.552H152.894V210.482Z" fill="#FF7C06"/>
<path d="M167.808 210.482H152.895V225.552H167.808V210.482Z" fill="#FF7C06"/>
<path d="M182.722 210.482H167.809V225.552H182.722V210.482Z" fill="#FF7C06"/>
<path d="M197.634 210.482H182.721V225.552H197.634V210.482Z" fill="#FF7C06"/>
<path d="M212.548 210.482H197.635V225.552H212.548V210.482Z" fill="#181425"/>
<path d="M227.222 210.482H212.309V225.552H227.222V210.482Z" fill="#181425"/>
<path d="M242.134 210.482H227.221V225.552H242.134V210.482Z" fill="#181425"/>
<path d="M257.048 210.482H242.135V225.552H257.048V210.482Z" fill="#FF7C06"/>
<path d="M271.962 210.482H257.049V225.552H271.962V210.482Z" fill="#FF7C06"/>
<path d="M286.874 210.482H271.961V225.552H286.874V210.482Z" fill="#181425"/>
<path d="M301.788 210.482H286.875V225.552H301.788V210.482Z" fill="#FF7C06"/>
<path d="M316.703 210.482H301.789V225.552H316.703V210.482Z" fill="#181425"/>
<path d="M331.617 210.482H316.703V225.552H331.617V210.482Z" fill="#262B44"/>
<path d="M346.529 210.482H331.615V225.552H346.529V210.482Z" fill="#181425"/>
<path d="M18.9135 225.552H4V240.621H18.9135V225.552Z" fill="#181425"/>
<path d="M33.8276 225.552H18.9141V240.621H33.8276V225.552Z" fill="#262B44"/>
<path d="M48.7397 225.552H33.8262V240.621H48.7397V225.552Z" fill="#181425"/>
<path d="M63.6537 225.552H48.7402V240.621H63.6537V225.552Z" fill="#181425"/>
<path d="M78.5678 225.552H63.6543V240.621H78.5678V225.552Z" fill="#181425"/>
<path d="M93.2397 225.552H78.3262V240.621H93.2397V225.552Z" fill="#181425"/>
<path d="M108.154 225.552H93.2402V240.621H108.154V225.552Z" fill="white"/>
<path d="M123.068 225.552H108.154V240.621H123.068V225.552Z" fill="white"/>
<path d="M137.982 225.552H123.068V240.621H137.982V225.552Z" fill="#181425"/>
<path d="M152.894 225.552H137.98V240.621H152.894V225.552Z" fill="#E45C00"/>
<path d="M167.808 225.552H152.895V240.621H167.808V225.552Z" fill="#FF7C06"/>
<path d="M182.722 225.552H167.809V240.621H182.722V225.552Z" fill="#FF7C06"/>
<path d="M197.634 225.552H182.721V240.621H197.634V225.552Z" fill="#FF7C06"/>
<path d="M212.548 225.552H197.635V240.621H212.548V225.552Z" fill="#FF7C06"/>
<path d="M227.222 225.552H212.309V240.621H227.222V225.552Z" fill="#FF7C06"/>
<path d="M242.134 225.552H227.221V240.621H242.134V225.552Z" fill="#FF7C06"/>
<path d="M257.048 225.552H242.135V240.621H257.048V225.552Z" fill="#FF7C06"/>
<path d="M271.962 225.552H257.049V240.621H271.962V225.552Z" fill="#181425"/>
<path d="M286.874 225.552H271.961V240.621H286.874V225.552Z" fill="white"/>
<path d="M301.788 225.552H286.875V240.621H301.788V225.552Z" fill="#181425"/>
<path d="M316.703 225.552H301.789V240.621H316.703V225.552Z" fill="#181425"/>
<path d="M331.617 225.552H316.703V240.621H331.617V225.552Z" fill="#262B44"/>
<path d="M346.529 225.552H331.615V240.621H346.529V225.552Z" fill="#181425"/>
<path d="M361.443 225.552H346.529V240.621H361.443V225.552Z" fill="#181425"/>
<path d="M376.117 225.552H361.203V240.621H376.117V225.552Z" fill="#181425"/>
<path d="M33.8276 240.62H18.9141V255.689H33.8276V240.62Z" fill="#181425"/>
<path d="M48.7397 240.62H33.8262V255.689H48.7397V240.62Z" fill="#C6C6C6"/>
<path d="M63.6537 240.62H48.7402V255.689H63.6537V240.62Z" fill="white"/>
<path d="M78.5678 240.62H63.6543V255.689H78.5678V240.62Z" fill="white"/>
<path d="M93.2397 240.62H78.3262V255.689H93.2397V240.62Z" fill="#181425"/>
<path d="M108.154 240.62H93.2402V255.689H108.154V240.62Z" fill="#181425"/>
<path d="M123.068 240.62H108.154V255.689H123.068V240.62Z" fill="#C6C6C6"/>
<path d="M137.982 240.62H123.068V255.689H137.982V240.62Z" fill="white"/>
<path d="M152.894 240.62H137.98V255.689H152.894V240.62Z" fill="#181425"/>
<path d="M167.808 240.62H152.895V255.689H167.808V240.62Z" fill="#E45C00"/>
<path d="M182.722 240.62H167.809V255.689H182.722V240.62Z" fill="#E45C00"/>
<path d="M197.634 240.62H182.721V255.689H197.634V240.62Z" fill="#FF7C06"/>
<path d="M212.548 240.62H197.635V255.689H212.548V240.62Z" fill="#FF7C06"/>
<path d="M227.222 240.62H212.309V255.689H227.222V240.62Z" fill="#FF7C06"/>
<path d="M242.134 240.62H227.221V255.689H242.134V240.62Z" fill="#FF7C06"/>
<path d="M257.048 240.62H242.135V255.689H257.048V240.62Z" fill="#181425"/>
<path d="M271.962 240.62H257.049V255.689H271.962V240.62Z" fill="white"/>
<path d="M286.874 240.62H271.961V255.689H286.874V240.62Z" fill="white"/>
<path d="M301.788 240.62H286.875V255.689H301.788V240.62Z" fill="#181425"/>
<path d="M331.617 240.62H316.703V255.689H331.617V240.62Z" fill="#181425"/>
<path d="M346.529 240.62H331.615V255.689H346.529V240.62Z" fill="#C6C6C6"/>
<path d="M361.443 240.62H346.529V255.689H361.443V240.62Z" fill="white"/>
<path d="M376.117 240.62H361.203V255.689H376.117V240.62Z" fill="white"/>
<path d="M391.029 240.62H376.115V255.689H391.029V240.62Z" fill="#181425"/>
<path d="M33.8276 255.689H18.9141V270.759H33.8276V255.689Z" fill="#181425"/>
<path d="M48.7397 255.689H33.8262V270.759H48.7397V255.689Z" fill="#C6C6C6"/>
<path d="M63.6537 255.689H48.7402V270.759H63.6537V255.689Z" fill="white"/>
<path d="M78.5678 255.689H63.6543V270.759H78.5678V255.689Z" fill="white"/>
<path d="M93.2397 255.689H78.3262V270.759H93.2397V255.689Z" fill="#181425"/>
<path d="M108.154 255.689H93.2402V270.759H108.154V255.689Z" fill="#C6C6C6"/>
<path d="M123.068 255.689H108.154V270.759H123.068V255.689Z" fill="#181425"/>
<path d="M137.982 255.689H123.068V270.759H137.982V255.689Z" fill="white"/>
<path d="M152.894 255.689H137.98V270.759H152.894V255.689Z" fill="#181425"/>
<path d="M167.808 255.689H152.895V270.759H167.808V255.689Z" fill="#181425"/>
<path d="M182.722 255.689H167.809V270.759H182.722V255.689Z" fill="#181425"/>
<path d="M197.634 255.689H182.721V270.759H197.634V255.689Z" fill="#181425"/>
<path d="M212.548 255.689H197.635V270.759H212.548V255.689Z" fill="#181425"/>
<path d="M227.222 255.689H212.309V270.759H227.222V255.689Z" fill="#181425"/>
<path d="M242.134 255.689H227.221V270.759H242.134V255.689Z" fill="#181425"/>
<path d="M257.048 255.689H242.135V270.759H257.048V255.689Z" fill="white"/>
<path d="M271.962 255.689H257.049V270.759H271.962V255.689Z" fill="white"/>
<path d="M286.874 255.689H271.961V270.759H286.874V255.689Z" fill="#181425"/>
<path d="M331.617 255.689H316.703V270.759H331.617V255.689Z" fill="#181425"/>
<path d="M346.529 255.689H331.615V270.759H346.529V255.689Z" fill="#C6C6C6"/>
<path d="M361.443 255.689H346.529V270.759H361.443V255.689Z" fill="white"/>
<path d="M376.117 255.689H361.203V270.759H376.117V255.689Z" fill="white"/>
<path d="M391.029 255.689H376.115V270.759H391.029V255.689Z" fill="#181425"/>
<path d="M33.8276 270.759H18.9141V285.828H33.8276V270.759Z" fill="#181425"/>
<path d="M48.7397 270.759H33.8262V285.828H48.7397V270.759Z" fill="#C6C6C6"/>
<path d="M63.6537 270.759H48.7402V285.828H63.6537V270.759Z" fill="white"/>
<path d="M78.5678 270.759H63.6543V285.828H78.5678V270.759Z" fill="white"/>
<path d="M93.2397 270.759H78.3262V285.828H93.2397V270.759Z" fill="#181425"/>
<path d="M108.154 270.759H93.2402V285.828H108.154V270.759Z" fill="#181425"/>
<path d="M123.068 270.759H108.154V285.828H123.068V270.759Z" fill="#181425"/>
<path d="M137.982 270.759H123.068V285.828H137.982V270.759Z" fill="#181425"/>
<path d="M152.894 270.759H137.98V285.828H152.894V270.759Z" fill="#181425"/>
<path d="M167.808 270.759H152.895V285.828H167.808V270.759Z" fill="#E45C00"/>
<path d="M182.722 270.759H167.809V285.828H182.722V270.759Z" fill="#E45C00"/>
<path d="M197.634 270.759H182.721V285.828H197.634V270.759Z" fill="#E45C00"/>
<path d="M212.548 270.759H197.635V285.828H212.548V270.759Z" fill="#FF7C06"/>
<path d="M227.222 270.759H212.309V285.828H227.222V270.759Z" fill="#FF7C06"/>
<path d="M242.134 270.759H227.221V285.828H242.134V270.759Z" fill="#181425"/>
<path d="M257.048 270.759H242.135V285.828H257.048V270.759Z" fill="#181425"/>
<path d="M271.962 270.759H257.049V285.828H271.962V270.759Z" fill="#181425"/>
<path d="M331.617 270.759H316.703V285.828H331.617V270.759Z" fill="#181425"/>
<path d="M346.529 270.759H331.615V285.828H346.529V270.759Z" fill="#C6C6C6"/>
<path d="M361.443 270.759H346.529V285.828H361.443V270.759Z" fill="white"/>
<path d="M376.117 270.759H361.203V285.828H376.117V270.759Z" fill="white"/>
<path d="M391.029 270.759H376.115V285.828H391.029V270.759Z" fill="#181425"/>
<path d="M48.7397 285.828H33.8262V300.897H48.7397V285.828Z" fill="#181425"/>
<path d="M63.6537 285.828H48.7402V300.897H63.6537V285.828Z" fill="#181425"/>
<path d="M78.5678 285.828H63.6543V300.897H78.5678V285.828Z" fill="#181425"/>
<path d="M108.154 285.828H93.2402V300.897H108.154V285.828Z" fill="#181425"/>
<path d="M123.068 285.828H108.154V300.897H123.068V285.828Z" fill="#262B44"/>
<path d="M137.982 285.828H123.068V300.897H137.982V285.828Z" fill="#181425"/>
<path d="M152.894 285.828H137.98V300.897H152.894V285.828Z" fill="#181425"/>
<path d="M167.808 285.828H152.895V300.897H167.808V285.828Z" fill="#181425"/>
<path d="M182.722 285.828H167.809V300.897H182.722V285.828Z" fill="#181425"/>
<path d="M197.634 285.828H182.721V300.897H197.634V285.828Z" fill="#181425"/>
<path d="M212.548 285.828H197.635V300.897H212.548V285.828Z" fill="#181425"/>
<path d="M227.222 285.828H212.309V300.897H227.222V285.828Z" fill="#181425"/>
<path d="M242.134 285.828H227.221V300.897H242.134V285.828Z" fill="#181425"/>
<path d="M257.048 285.828H242.135V300.897H257.048V285.828Z" fill="#262B44"/>
<path d="M271.962 285.828H257.049V300.897H271.962V285.828Z" fill="#181425"/>
<path d="M346.529 285.828H331.615V300.897H346.529V285.828Z" fill="#181425"/>
<path d="M361.443 285.828H346.529V300.897H361.443V285.828Z" fill="#181425"/>
<path d="M376.117 285.828H361.203V300.897H376.117V285.828Z" fill="#181425"/>
<path d="M108.154 300.897H93.2402V315.967H108.154V300.897Z" fill="#181425"/>
<path d="M123.068 300.897H108.154V315.967H123.068V300.897Z" fill="#262B44"/>
<path d="M137.982 300.897H123.068V315.967H137.982V300.897Z" fill="#181425"/>
<path d="M242.134 300.897H227.221V315.967H242.134V300.897Z" fill="#181425"/>
<path d="M257.048 300.897H242.135V315.967H257.048V300.897Z" fill="#262B44"/>
<path d="M271.962 300.897H257.049V315.967H271.962V300.897Z" fill="#262B44"/>
<path d="M286.874 300.897H271.961V315.967H286.874V300.897Z" fill="#181425"/>
<path d="M93.2397 315.967H78.3262V331.036H93.2397V315.967Z" fill="#181425"/>
<path d="M108.154 315.967H93.2402V331.036H108.154V315.967Z" fill="#181425"/>
<path d="M123.068 315.967H108.154V331.036H123.068V315.967Z" fill="#181425"/>
<path d="M137.982 315.967H123.068V331.036H137.982V315.967Z" fill="#181425"/>
<path d="M257.048 315.967H242.135V331.036H257.048V315.967Z" fill="#181425"/>
<path d="M271.962 315.967H257.049V331.036H271.962V315.967Z" fill="#181425"/>
<path d="M286.874 315.967H271.961V331.036H286.874V315.967Z" fill="#181425"/>
<path d="M301.788 315.967H286.875V331.036H301.788V315.967Z" fill="#181425"/>
<path d="M78.5678 331.035H63.6543V346.104H78.5678V331.035Z" fill="#181425"/>
<path d="M93.2397 331.035H78.3262V346.104H93.2397V331.035Z" fill="#FF7C06"/>
<path d="M108.154 331.035H93.2402V346.104H108.154V331.035Z" fill="white"/>
<path d="M123.068 331.035H108.154V346.104H123.068V331.035Z" fill="white"/>
<path d="M137.982 331.035H123.068V346.104H137.982V331.035Z" fill="#FF7C06"/>
<path d="M152.894 331.035H137.98V346.104H152.894V331.035Z" fill="#181425"/>
<path d="M242.134 331.035H227.221V346.104H242.134V331.035Z" fill="#181425"/>
<path d="M257.048 331.035H242.135V346.104H257.048V331.035Z" fill="#FF7C06"/>
<path d="M271.962 331.035H257.049V346.104H271.962V331.035Z" fill="#FF7C06"/>
<path d="M286.874 331.035H271.961V346.104H286.874V331.035Z" fill="white"/>
<path d="M301.788 331.035H286.875V346.104H301.788V331.035Z" fill="white"/>
<path d="M316.703 331.035H301.789V346.104H316.703V331.035Z" fill="#181425"/>
<path d="M78.5678 346.104H63.6543V361.174H78.5678V346.104Z" fill="#181425"/>
<path d="M93.2397 346.104H78.3262V361.174H93.2397V346.104Z" fill="#E45C00"/>
<path d="M108.154 346.104H93.2402V361.174H108.154V346.104Z" fill="#E45C00"/>
<path d="M123.068 346.104H108.154V361.174H123.068V346.104Z" fill="#E45C00"/>
<path d="M137.982 346.104H123.068V361.174H137.982V346.104Z" fill="#E45C00"/>
<path d="M152.894 346.104H137.98V361.174H152.894V346.104Z" fill="#181425"/>
<path d="M242.134 346.104H227.221V361.174H242.134V346.104Z" fill="#181425"/>
<path d="M257.048 346.104H242.135V361.174H257.048V346.104Z" fill="#E45C00"/>
<path d="M271.962 346.104H257.049V361.174H271.962V346.104Z" fill="#E45C00"/>
<path d="M286.874 346.104H271.961V361.174H286.874V346.104Z" fill="#E45C00"/>
<path d="M301.788 346.104H286.875V361.174H301.788V346.104Z" fill="#E45C00"/>
<path d="M316.703 346.104H301.789V361.174H316.703V346.104Z" fill="#E45C00"/>
<path d="M331.617 346.104H316.703V361.174H331.617V346.104Z" fill="#181425"/>
<path d="M78.5678 360.931H63.6543V376H78.5678V360.931Z" fill="#181425"/>
<path d="M93.2397 360.931H78.3262V376H93.2397V360.931Z" fill="#181425"/>
<path d="M108.154 360.931H93.2402V376H108.154V360.931Z" fill="#181425"/>
<path d="M123.068 360.931H108.154V376H123.068V360.931Z" fill="#181425"/>
<path d="M137.982 360.931H123.068V376H137.982V360.931Z" fill="#181425"/>
<path d="M152.894 360.931H137.98V376H152.894V360.931Z" fill="#181425"/>
<path d="M242.134 360.931H227.221V376H242.134V360.931Z" fill="#181425"/>
<path d="M257.048 360.931H242.135V376H257.048V360.931Z" fill="#181425"/>
<path d="M271.962 360.931H257.049V376H271.962V360.931Z" fill="#181425"/>
<path d="M286.874 360.931H271.961V376H286.874V360.931Z" fill="#181425"/>
<path d="M301.788 360.931H286.875V376H301.788V360.931Z" fill="#181425"/>
<path d="M316.703 360.931H301.789V376H316.703V360.931Z" fill="#181425"/>
<path d="M331.617 360.931H316.703V376H331.617V360.931Z" fill="#181425"/>
</g>
<defs>
<filter id="filter0_d_172_1970" x="0" y="0" width="395.029" height="384" filterUnits="userSpaceOnUse" color-interpolation-filters="sRGB">
<feFlood flood-opacity="0" result="BackgroundImageFix"/>
<feColorMatrix in="SourceAlpha" type="matrix" values="0 0 0 0 0 0 0 0 0 0 0 0 0 0 0 0 0 0 127 0" result="hardAlpha"/>
<feOffset dy="4"/>
<feGaussianBlur stdDeviation="2"/>
<feComposite in2="hardAlpha" operator="out"/>
<feColorMatrix type="matrix" values="0 0 0 0 0 0 0 0 0 0 0 0 0 0 0 0 0 0 0.25 0"/>
<feBlend mode="normal" in2="BackgroundImageFix" result="effect1_dropShadow_172_1970"/>
<feBlend mode="normal" in="SourceGraphic" in2="effect1_dropShadow_172_1970" result="shape"/>
</filter>
<clipPath id="clip0_172_1970">
<rect width="387.029" height="376" fill="white" transform="translate(4)"/>
</clipPath>
</defs>
</svg>
