<svg width="396" height="384" viewBox="0 0 396 384" fill="none" xmlns="http://www.w3.org/2000/svg">
<g clip-path="url(#clip0_157_897)" filter="url(#filter0_d_157_897)">
<path d="M271.962 0H286.875V15.0692H271.962V0Z" fill="#181425"/>
<path d="M257.047 0H271.961V15.0692H257.047V0Z" fill="#181425"/>
<path d="M242.135 0H257.049V15.0692H242.135V0Z" fill="#181425"/>
<path d="M227.221 0H242.135V15.0692H227.221V0Z" fill="#181425"/>
<path d="M212.307 0H227.221V15.0692H212.307V0Z" fill="#181425"/>
<path d="M197.395 0H212.309V15.0692H197.395V0Z" fill="#181425"/>
<path d="M182.481 0H197.395V15.0692H182.481V0Z" fill="#181425"/>
<path d="M167.807 0H182.721V15.0692H167.807V0Z" fill="#181425"/>
<path d="M152.895 0H167.809V15.0692H152.895V0Z" fill="#181425"/>
<path d="M301.79 15.0693H316.703V30.1385H301.79V15.0693Z" fill="#181425"/>
<path d="M286.876 15.0693H301.789V30.1385H286.876V15.0693Z" fill="#181425"/>
<path d="M271.962 15.0693H286.875V30.1385H271.962V15.0693Z" fill="#E45C00"/>
<path d="M257.047 15.0693H271.961V30.1385H257.047V15.0693Z" fill="#181425"/>
<path d="M242.135 15.0693H257.049V30.1385H242.135V15.0693Z" fill="#181425"/>
<path d="M227.221 15.0693H242.135V30.1385H227.221V15.0693Z" fill="#E45C00"/>
<path d="M212.307 15.0693H227.221V30.1385H212.307V15.0693Z" fill="#E45C00"/>
<path d="M197.395 15.0693H212.309V30.1385H197.395V15.0693Z" fill="#E45C00"/>
<path d="M182.481 15.0693H197.395V30.1385H182.481V15.0693Z" fill="#FF7C06"/>
<path d="M167.807 15.0693H182.721V30.1385H167.807V15.0693Z" fill="#FF7C06"/>
<path d="M152.895 15.0693H167.809V30.1385H152.895V15.0693Z" fill="#181425"/>
<path d="M137.981 15.0693H152.895V30.1385H137.981V15.0693Z" fill="#181425"/>
<path d="M123.067 15.0693H137.98V30.1385H123.067V15.0693Z" fill="#181425"/>
<path d="M316.462 30.1387H331.375V45.2078H316.462V30.1387Z" fill="#181425"/>
<path d="M301.79 30.1387H316.703V45.2078H301.79V30.1387Z" fill="white"/>
<path d="M286.876 30.1387H301.789V45.2078H286.876V30.1387Z" fill="white"/>
<path d="M271.962 30.1387H286.875V45.2078H271.962V30.1387Z" fill="#181425"/>
<path d="M257.047 30.1387H271.961V45.2078H257.047V30.1387Z" fill="white"/>
<path d="M242.135 30.1387H257.049V45.2078H242.135V30.1387Z" fill="#181425"/>
<path d="M227.221 30.1387H242.135V45.2078H227.221V30.1387Z" fill="#181425"/>
<path d="M212.307 30.1387H227.221V45.2078H212.307V30.1387Z" fill="#181425"/>
<path d="M197.395 30.1387H212.309V45.2078H197.395V30.1387Z" fill="#181425"/>
<path d="M182.481 30.1387H197.395V45.2078H182.481V30.1387Z" fill="#181425"/>
<path d="M167.807 30.1387H182.721V45.2078H167.807V30.1387Z" fill="#181425"/>
<path d="M152.895 30.1387H167.809V45.2078H152.895V30.1387Z" fill="#181425"/>
<path d="M137.981 30.1387H152.895V45.2078H137.981V30.1387Z" fill="white"/>
<path d="M123.067 30.1387H137.98V45.2078H123.067V30.1387Z" fill="white"/>
<path d="M108.155 30.1387H123.068V45.2078H108.155V30.1387Z" fill="#181425"/>
<path d="M331.376 45.207H346.289V60.2762H331.376V45.207Z" fill="#181425"/>
<path d="M316.462 45.207H331.375V60.2762H316.462V45.207Z" fill="white"/>
<path d="M301.79 45.207H316.703V60.2762H301.79V45.207Z" fill="white"/>
<path d="M286.876 45.207H301.789V60.2762H286.876V45.207Z" fill="#181425"/>
<path d="M271.962 45.207H286.875V60.2762H271.962V45.207Z" fill="white"/>
<path d="M257.047 45.207H271.961V60.2762H257.047V45.207Z" fill="#C6C6C6"/>
<path d="M242.135 45.207H257.049V60.2762H242.135V45.207Z" fill="#181425"/>
<path d="M227.221 45.207H242.135V60.2762H227.221V45.207Z" fill="#E45C00"/>
<path d="M212.307 45.207H227.221V60.2762H212.307V45.207Z" fill="#E45C00"/>
<path d="M197.395 45.207H212.309V60.2762H197.395V45.207Z" fill="#FF7C06"/>
<path d="M182.481 45.207H197.395V60.2762H182.481V45.207Z" fill="#FF7C06"/>
<path d="M167.807 45.207H182.721V60.2762H167.807V45.207Z" fill="#FF7C06"/>
<path d="M152.895 45.207H167.809V60.2762H152.895V45.207Z" fill="#FF7C06"/>
<path d="M137.981 45.207H152.895V60.2762H137.981V45.207Z" fill="#181425"/>
<path d="M123.067 45.207H137.98V60.2762H123.067V45.207Z" fill="#C6C6C6"/>
<path d="M108.155 45.207H123.068V60.2762H108.155V45.207Z" fill="white"/>
<path d="M93.2408 45.207H108.154V60.2762H93.2408V45.207Z" fill="#181425"/>
<path d="M346.29 60.2764H361.203V75.3455H346.29V60.2764Z" fill="#181425"/>
<path d="M331.376 60.2764H346.289V75.3455H331.376V60.2764Z" fill="#181425"/>
<path d="M316.462 60.2764H331.375V75.3455H316.462V60.2764Z" fill="#181425"/>
<path d="M301.79 60.2764H316.703V75.3455H301.79V60.2764Z" fill="#181425"/>
<path d="M286.876 60.2764H301.789V75.3455H286.876V60.2764Z" fill="white"/>
<path d="M271.962 60.2764H286.875V75.3455H271.962V60.2764Z" fill="#C6C6C6"/>
<path d="M257.047 60.2764H271.961V75.3455H257.047V60.2764Z" fill="#181425"/>
<path d="M242.135 60.2764H257.049V75.3455H242.135V60.2764Z" fill="#E45C00"/>
<path d="M227.221 60.2764H242.135V75.3455H227.221V60.2764Z" fill="#FF7C06"/>
<path d="M212.307 60.2764H227.221V75.3455H212.307V60.2764Z" fill="#FF7C06"/>
<path d="M197.395 60.2764H212.309V75.3455H197.395V60.2764Z" fill="#FF7C06"/>
<path d="M182.481 60.2764H197.395V75.3455H182.481V60.2764Z" fill="#FF7C06"/>
<path d="M167.807 60.2764H182.721V75.3455H167.807V60.2764Z" fill="#FF7C06"/>
<path d="M152.895 60.2764H167.809V75.3455H152.895V60.2764Z" fill="#FF7C06"/>
<path d="M137.981 60.2764H152.895V75.3455H137.981V60.2764Z" fill="#FF7C06"/>
<path d="M123.067 60.2764H137.98V75.3455H123.067V60.2764Z" fill="#181425"/>
<path d="M108.155 60.2764H123.068V75.3455H108.155V60.2764Z" fill="white"/>
<path d="M93.2408 60.2764H108.154V75.3455H93.2408V60.2764Z" fill="#181425"/>
<path d="M78.3267 60.2764H93.2402V75.3455H78.3267V60.2764Z" fill="#181425"/>
<path d="M346.29 75.1025H361.203V90.1717H346.29V75.1025Z" fill="#181425"/>
<path d="M331.376 75.1025H346.289V90.1717H331.376V75.1025Z" fill="#E45C00"/>
<path d="M316.462 75.1025H331.375V90.1717H316.462V75.1025Z" fill="#E45C00"/>
<path d="M301.79 75.1025H316.703V90.1717H301.79V75.1025Z" fill="#181425"/>
<path d="M286.876 75.1025H301.789V90.1717H286.876V75.1025Z" fill="#181425"/>
<path d="M271.962 75.1025H286.875V90.1717H271.962V75.1025Z" fill="#181425"/>
<path d="M257.047 75.1025H271.961V90.1717H257.047V75.1025Z" fill="#E45C00"/>
<path d="M242.135 75.1025H257.049V90.1717H242.135V75.1025Z" fill="#FF7C06"/>
<path d="M227.221 75.1025H242.135V90.1717H227.221V75.1025Z" fill="#181425"/>
<path d="M212.307 75.1025H227.221V90.1717H212.307V75.1025Z" fill="#181425"/>
<path d="M197.395 75.1025H212.309V90.1717H197.395V75.1025Z" fill="#FF7C06"/>
<path d="M182.481 75.1025H197.395V90.1717H182.481V75.1025Z" fill="#FF7C06"/>
<path d="M167.807 75.1025H182.721V90.1717H167.807V75.1025Z" fill="#FF7C06"/>
<path d="M152.895 75.1025H167.809V90.1717H152.895V75.1025Z" fill="#FF7C06"/>
<path d="M137.981 75.1025H152.895V90.1717H137.981V75.1025Z" fill="#181425"/>
<path d="M123.067 75.1025H137.98V90.1717H123.067V75.1025Z" fill="#FF7C06"/>
<path d="M108.155 75.1025H123.068V90.1717H108.155V75.1025Z" fill="#181425"/>
<path d="M93.2408 75.1025H108.154V90.1717H93.2408V75.1025Z" fill="#FF7C06"/>
<path d="M78.3267 75.1025H93.2402V90.1717H78.3267V75.1025Z" fill="#181425"/>
<path d="M361.202 90.1719H376.115V105.241H361.202V90.1719Z" fill="#181425"/>
<path d="M346.29 90.1719H361.203V105.241H346.29V90.1719Z" fill="#E45C00"/>
<path d="M331.376 90.1719H346.289V105.241H331.376V90.1719Z" fill="#E45C00"/>
<path d="M316.462 90.1719H331.375V105.241H316.462V90.1719Z" fill="#181425"/>
<path d="M301.79 90.1719H316.703V105.241H301.79V90.1719Z" fill="#FF7C06"/>
<path d="M286.876 90.1719H301.789V105.241H286.876V90.1719Z" fill="#181425"/>
<path d="M271.962 90.1719H286.875V105.241H271.962V90.1719Z" fill="#E45C00"/>
<path d="M257.047 90.1719H271.961V105.241H257.047V90.1719Z" fill="#E45C00"/>
<path d="M242.135 90.1719H257.049V105.241H242.135V90.1719Z" fill="#FF7C06"/>
<path d="M227.221 90.1719H242.135V105.241H227.221V90.1719Z" fill="#FF7C06"/>
<path d="M212.307 90.1719H227.221V105.241H212.307V90.1719Z" fill="#FF7C06"/>
<path d="M197.395 90.1719H212.309V105.241H197.395V90.1719Z" fill="#FF7C06"/>
<path d="M182.481 90.1719H197.395V105.241H182.481V90.1719Z" fill="#FF7C06"/>
<path d="M167.807 90.1719H182.721V105.241H167.807V90.1719Z" fill="#FF7C06"/>
<path d="M152.895 90.1719H167.809V105.241H152.895V90.1719Z" fill="#FF7C06"/>
<path d="M137.981 90.1719H152.895V105.241H137.981V90.1719Z" fill="#FF7C06"/>
<path d="M123.067 90.1719H137.98V105.241H123.067V90.1719Z" fill="#FF7C06"/>
<path d="M108.155 90.1719H123.068V105.241H108.155V90.1719Z" fill="#FF7C06"/>
<path d="M93.2408 90.1719H108.154V105.241H93.2408V90.1719Z" fill="#181425"/>
<path d="M78.3267 90.1719H93.2402V105.241H78.3267V90.1719Z" fill="#FF7C06"/>
<path d="M63.4127 90.1719H78.3262V105.241H63.4127V90.1719Z" fill="#181425"/>
<path d="M361.202 105.241H376.115V120.31H361.202V105.241Z" fill="#181425"/>
<path d="M346.29 105.241H361.203V120.31H346.29V105.241Z" fill="#181425"/>
<path d="M331.376 105.241H346.289V120.31H331.376V105.241Z" fill="#181425"/>
<path d="M316.462 105.241H331.375V120.31H316.462V105.241Z" fill="#181425"/>
<path d="M301.79 105.241H316.703V120.31H301.79V105.241Z" fill="#FF7C06"/>
<path d="M286.876 105.241H301.789V120.31H286.876V105.241Z" fill="#181425"/>
<path d="M271.962 105.241H286.875V120.31H271.962V105.241Z" fill="#E45C00"/>
<path d="M257.047 105.241H271.961V120.31H257.047V105.241Z" fill="#181425"/>
<path d="M242.135 105.241H257.049V120.31H242.135V105.241Z" fill="#181425"/>
<path d="M227.221 105.241H242.135V120.31H227.221V105.241Z" fill="#181425"/>
<path d="M212.307 105.241H227.221V120.31H212.307V105.241Z" fill="#181425"/>
<path d="M197.395 105.241H212.309V120.31H197.395V105.241Z" fill="#FF7C06"/>
<path d="M182.481 105.241H197.395V120.31H182.481V105.241Z" fill="#FF7C06"/>
<path d="M167.807 105.241H182.721V120.31H167.807V105.241Z" fill="#FF7C06"/>
<path d="M152.895 105.241H167.809V120.31H152.895V105.241Z" fill="#FF7C06"/>
<path d="M137.981 105.241H152.895V120.31H137.981V105.241Z" fill="#FF7C06"/>
<path d="M123.067 105.241H137.98V120.31H123.067V105.241Z" fill="#181425"/>
<path d="M108.155 105.241H123.068V120.31H108.155V105.241Z" fill="#181425"/>
<path d="M93.2408 105.241H108.154V120.31H93.2408V105.241Z" fill="#181425"/>
<path d="M78.3267 105.241H93.2402V120.31H78.3267V105.241Z" fill="#FF7C06"/>
<path d="M63.4127 105.241H78.3262V120.31H63.4127V105.241Z" fill="#181425"/>
<path d="M376.116 120.311H391.029V135.38H376.116V120.311Z" fill="#181425"/>
<path d="M361.202 120.311H376.115V135.38H361.202V120.311Z" fill="#C6C6C6"/>
<path d="M346.29 120.311H361.203V135.38H346.29V120.311Z" fill="white"/>
<path d="M331.376 120.311H346.289V135.38H331.376V120.311Z" fill="#181425"/>
<path d="M316.462 120.311H331.375V135.38H316.462V120.311Z" fill="white"/>
<path d="M301.79 120.311H316.703V135.38H301.79V120.311Z" fill="#181425"/>
<path d="M286.876 120.311H301.789V135.38H286.876V120.311Z" fill="#181425"/>
<path d="M271.962 120.311H286.875V135.38H271.962V120.311Z" fill="#181425"/>
<path d="M257.047 120.311H271.961V135.38H257.047V120.311Z" fill="#181425"/>
<path d="M242.135 120.311H257.049V135.38H242.135V120.311Z" fill="#181425"/>
<path d="M227.221 120.311H242.135V135.38H227.221V120.311Z" fill="#181425"/>
<path d="M212.307 120.311H227.221V135.38H212.307V120.311Z" fill="#181425"/>
<path d="M197.395 120.311H212.309V135.38H197.395V120.311Z" fill="#181425"/>
<path d="M182.481 120.311H197.395V135.38H182.481V120.311Z" fill="#FF7C06"/>
<path d="M167.807 120.311H182.721V135.38H167.807V120.311Z" fill="#FF7C06"/>
<path d="M152.895 120.311H167.809V135.38H152.895V120.311Z" fill="#FF7C06"/>
<path d="M137.981 120.311H152.895V135.38H137.981V120.311Z" fill="#181425"/>
<path d="M123.067 120.311H137.98V135.38H123.067V120.311Z" fill="#181425"/>
<path d="M108.155 120.311H123.068V135.38H108.155V120.311Z" fill="#181425"/>
<path d="M93.2408 120.311H108.154V135.38H93.2408V120.311Z" fill="#181425"/>
<path d="M78.3267 120.311H93.2402V135.38H78.3267V120.311Z" fill="#181425"/>
<path d="M63.4127 120.311H78.3262V135.38H63.4127V120.311Z" fill="white"/>
<path d="M48.5006 120.311H63.4141V135.38H48.5006V120.311Z" fill="#181425"/>
<path d="M376.116 135.38H391.029V150.449H376.116V135.38Z" fill="#181425"/>
<path d="M361.202 135.38H376.115V150.449H361.202V135.38Z" fill="#C6C6C6"/>
<path d="M346.29 135.38H361.203V150.449H346.29V135.38Z" fill="white"/>
<path d="M331.376 135.38H346.289V150.449H331.376V135.38Z" fill="#181425"/>
<path d="M316.462 135.38H331.375V150.449H316.462V135.38Z" fill="white"/>
<path d="M301.79 135.38H316.703V150.449H301.79V135.38Z" fill="#181425"/>
<path d="M286.876 135.38H301.789V150.449H286.876V135.38Z" fill="#181425"/>
<path d="M271.962 135.38H286.875V150.449H271.962V135.38Z" fill="#181425"/>
<path d="M257.047 135.38H271.961V150.449H257.047V135.38Z" fill="#181425"/>
<path d="M242.135 135.38H257.049V150.449H242.135V135.38Z" fill="white"/>
<path d="M227.221 135.38H242.135V150.449H227.221V135.38Z" fill="#3978A8"/>
<path d="M212.307 135.38H227.221V150.449H212.307V135.38Z" fill="#3978A8"/>
<path d="M197.395 135.38H212.309V150.449H197.395V135.38Z" fill="#181425"/>
<path d="M182.481 135.38H197.395V150.449H182.481V135.38Z" fill="#181425"/>
<path d="M167.807 135.38H182.721V150.449H167.807V135.38Z" fill="#181425"/>
<path d="M152.895 135.38H167.809V150.449H152.895V135.38Z" fill="#181425"/>
<path d="M137.981 135.38H152.895V150.449H137.981V135.38Z" fill="#181425"/>
<path d="M123.067 135.38H137.98V150.449H123.067V135.38Z" fill="#181425"/>
<path d="M108.155 135.38H123.068V150.449H108.155V135.38Z" fill="#3978A8"/>
<path d="M93.2408 135.38H108.154V150.449H93.2408V135.38Z" fill="#3978A8"/>
<path d="M78.3267 135.38H93.2402V150.449H78.3267V135.38Z" fill="#181425"/>
<path d="M63.4127 135.38H78.3262V150.449H63.4127V135.38Z" fill="white"/>
<path d="M48.5006 135.38H63.4141V150.449H48.5006V135.38Z" fill="#181425"/>
<path d="M376.116 150.448H391.029V165.517H376.116V150.448Z" fill="#181425"/>
<path d="M361.202 150.448H376.115V165.517H361.202V150.448Z" fill="#C6C6C6"/>
<path d="M346.29 150.448H361.203V165.517H346.29V150.448Z" fill="white"/>
<path d="M331.376 150.448H346.289V165.517H331.376V150.448Z" fill="#181425"/>
<path d="M316.462 150.448H331.375V165.517H316.462V150.448Z" fill="white"/>
<path d="M301.79 150.448H316.703V165.517H301.79V150.448Z" fill="#181425"/>
<path d="M286.876 150.448H301.789V165.517H286.876V150.448Z" fill="#E45C00"/>
<path d="M271.962 150.448H286.875V165.517H271.962V150.448Z" fill="#181425"/>
<path d="M257.047 150.448H271.961V165.517H257.047V150.448Z" fill="white"/>
<path d="M242.135 150.448H257.049V165.517H242.135V150.448Z" fill="white"/>
<path d="M227.221 150.448H242.135V165.517H227.221V150.448Z" fill="#3978A8"/>
<path d="M212.307 150.448H227.221V165.517H212.307V150.448Z" fill="#394778"/>
<path d="M197.395 150.448H212.309V165.517H197.395V150.448Z" fill="white"/>
<path d="M182.481 150.448H197.395V165.517H182.481V150.448Z" fill="#181425"/>
<path d="M167.807 150.448H182.721V165.517H167.807V150.448Z" fill="#181425"/>
<path d="M152.895 150.448H167.809V165.517H152.895V150.448Z" fill="#181425"/>
<path d="M137.981 150.448H152.895V165.517H137.981V150.448Z" fill="#181425"/>
<path d="M123.067 150.448H137.98V165.517H123.067V150.448Z" fill="white"/>
<path d="M108.155 150.448H123.068V165.517H108.155V150.448Z" fill="#394778"/>
<path d="M93.2408 150.448H108.154V165.517H93.2408V150.448Z" fill="#3978A8"/>
<path d="M78.3267 150.448H93.2402V165.517H78.3267V150.448Z" fill="#181425"/>
<path d="M63.4127 150.448H78.3262V165.517H63.4127V150.448Z" fill="white"/>
<path d="M48.5006 150.448H63.4141V165.517H48.5006V150.448Z" fill="#181425"/>
<path d="M376.116 165.518H391.029V180.587H376.116V165.518Z" fill="#181425"/>
<path d="M361.202 165.518H376.115V180.587H361.202V165.518Z" fill="#C6C6C6"/>
<path d="M346.29 165.518H361.203V180.587H346.29V165.518Z" fill="white"/>
<path d="M331.376 165.518H346.289V180.587H331.376V165.518Z" fill="#181425"/>
<path d="M316.462 165.518H331.375V180.587H316.462V165.518Z" fill="white"/>
<path d="M301.79 165.518H316.703V180.587H301.79V165.518Z" fill="#181425"/>
<path d="M286.876 165.518H301.789V180.587H286.876V165.518Z" fill="#E45C00"/>
<path d="M271.962 165.518H286.875V180.587H271.962V165.518Z" fill="#181425"/>
<path d="M257.047 165.518H271.961V180.587H257.047V165.518Z" fill="#181425"/>
<path d="M242.135 165.518H257.049V180.587H242.135V165.518Z" fill="white"/>
<path d="M227.221 165.518H242.135V180.587H227.221V165.518Z" fill="white"/>
<path d="M212.307 165.518H227.221V180.587H212.307V165.518Z" fill="#394778"/>
<path d="M197.395 165.518H212.309V180.587H197.395V165.518Z" fill="#181425"/>
<path d="M182.481 165.518H197.395V180.587H182.481V165.518Z" fill="#181425"/>
<path d="M167.807 165.518H182.721V180.587H167.807V165.518Z" fill="#FF7C06"/>
<path d="M152.895 165.518H167.809V180.587H152.895V165.518Z" fill="#FF7C06"/>
<path d="M137.981 165.518H152.895V180.587H137.981V165.518Z" fill="#181425"/>
<path d="M123.067 165.518H137.98V180.587H123.067V165.518Z" fill="#181425"/>
<path d="M108.155 165.518H123.068V180.587H108.155V165.518Z" fill="#394778"/>
<path d="M93.2408 165.518H108.154V180.587H93.2408V165.518Z" fill="#181425"/>
<path d="M78.3267 165.518H93.2402V180.587H78.3267V165.518Z" fill="#181425"/>
<path d="M63.4127 165.518H78.3262V180.587H63.4127V165.518Z" fill="white"/>
<path d="M48.5006 165.518H63.4141V180.587H48.5006V165.518Z" fill="#181425"/>
<path d="M361.202 180.587H376.115V195.656H361.202V180.587Z" fill="#181425"/>
<path d="M346.29 180.587H361.203V195.656H346.29V180.587Z" fill="#181425"/>
<path d="M331.376 180.587H346.289V195.656H331.376V180.587Z" fill="#181425"/>
<path d="M316.462 180.587H331.375V195.656H316.462V180.587Z" fill="#181425"/>
<path d="M301.79 180.587H316.703V195.656H301.79V180.587Z" fill="#FF7C06"/>
<path d="M286.876 180.587H301.789V195.656H286.876V180.587Z" fill="#181425"/>
<path d="M271.962 180.587H286.875V195.656H271.962V180.587Z" fill="#E45C00"/>
<path d="M257.047 180.587H271.961V195.656H257.047V180.587Z" fill="#181425"/>
<path d="M242.135 180.587H257.049V195.656H242.135V180.587Z" fill="#181425"/>
<path d="M227.221 180.587H242.135V195.656H227.221V180.587Z" fill="#181425"/>
<path d="M212.307 180.587H227.221V195.656H212.307V180.587Z" fill="#181425"/>
<path d="M197.395 180.587H212.309V195.656H197.395V180.587Z" fill="#181425"/>
<path d="M182.481 180.587H197.395V195.656H182.481V180.587Z" fill="#FF7C06"/>
<path d="M167.807 180.587H182.721V195.656H167.807V180.587Z" fill="#FF7C06"/>
<path d="M152.895 180.587H167.809V195.656H152.895V180.587Z" fill="#FF7C06"/>
<path d="M137.981 180.587H152.895V195.656H137.981V180.587Z" fill="#FF7C06"/>
<path d="M123.067 180.587H137.98V195.656H123.067V180.587Z" fill="#181425"/>
<path d="M108.155 180.587H123.068V195.656H108.155V180.587Z" fill="#181425"/>
<path d="M93.2408 180.587H108.154V195.656H93.2408V180.587Z" fill="#181425"/>
<path d="M78.3267 180.587H93.2402V195.656H78.3267V180.587Z" fill="#FF7C06"/>
<path d="M63.4127 180.587H78.3262V195.656H63.4127V180.587Z" fill="#181425"/>
<path d="M361.202 195.656H376.115V210.725H361.202V195.656Z" fill="#181425"/>
<path d="M346.29 195.656H361.203V210.725H346.29V195.656Z" fill="#262B44"/>
<path d="M331.376 195.656H346.289V210.725H331.376V195.656Z" fill="#262B44"/>
<path d="M316.462 195.656H331.375V210.725H316.462V195.656Z" fill="#181425"/>
<path d="M301.79 195.656H316.703V210.725H301.79V195.656Z" fill="#FF7C06"/>
<path d="M286.876 195.656H301.789V210.725H286.876V195.656Z" fill="#181425"/>
<path d="M271.962 195.656H286.875V210.725H271.962V195.656Z" fill="#E45C00"/>
<path d="M257.047 195.656H271.961V210.725H257.047V195.656Z" fill="#E45C00"/>
<path d="M242.135 195.656H257.049V210.725H242.135V195.656Z" fill="#181425"/>
<path d="M227.221 195.656H242.135V210.725H227.221V195.656Z" fill="#181425"/>
<path d="M212.307 195.656H227.221V210.725H212.307V195.656Z" fill="#181425"/>
<path d="M197.395 195.656H212.309V210.725H197.395V195.656Z" fill="#FF7C06"/>
<path d="M182.481 195.656H197.395V210.725H182.481V195.656Z" fill="#FF7C06"/>
<path d="M167.807 195.656H182.721V210.725H167.807V195.656Z" fill="#FF7C06"/>
<path d="M152.895 195.656H167.809V210.725H152.895V195.656Z" fill="#FF7C06"/>
<path d="M137.981 195.656H152.895V210.725H137.981V195.656Z" fill="#181425"/>
<path d="M123.067 195.656H137.98V210.725H123.067V195.656Z" fill="#FF7C06"/>
<path d="M108.155 195.656H123.068V210.725H108.155V195.656Z" fill="#181425"/>
<path d="M93.2408 195.656H108.154V210.725H93.2408V195.656Z" fill="#181425"/>
<path d="M78.3267 195.656H93.2402V210.725H78.3267V195.656Z" fill="#FF7C06"/>
<path d="M63.4127 195.656H78.3262V210.725H63.4127V195.656Z" fill="#181425"/>
<path d="M376.116 210.482H391.029V225.552H376.116V210.482Z" fill="#181425"/>
<path d="M361.202 210.482H376.115V225.552H361.202V210.482Z" fill="#262B44"/>
<path d="M346.29 210.482H361.203V225.552H346.29V210.482Z" fill="#262B44"/>
<path d="M331.376 210.482H346.289V225.552H331.376V210.482Z" fill="#181425"/>
<path d="M316.462 210.482H331.375V225.552H316.462V210.482Z" fill="#E45C00"/>
<path d="M301.79 210.482H316.703V225.552H301.79V210.482Z" fill="#181425"/>
<path d="M286.876 210.482H301.789V225.552H286.876V210.482Z" fill="#181425"/>
<path d="M271.962 210.482H286.875V225.552H271.962V210.482Z" fill="#181425"/>
<path d="M257.047 210.482H271.961V225.552H257.047V210.482Z" fill="#E45C00"/>
<path d="M242.135 210.482H257.049V225.552H242.135V210.482Z" fill="#FF7C06"/>
<path d="M227.221 210.482H242.135V225.552H227.221V210.482Z" fill="#FF7C06"/>
<path d="M212.307 210.482H227.221V225.552H212.307V210.482Z" fill="#FF7C06"/>
<path d="M197.395 210.482H212.309V225.552H197.395V210.482Z" fill="#FF7C06"/>
<path d="M182.481 210.482H197.395V225.552H182.481V210.482Z" fill="#181425"/>
<path d="M167.807 210.482H182.721V225.552H167.807V210.482Z" fill="#181425"/>
<path d="M152.895 210.482H167.809V225.552H152.895V210.482Z" fill="#181425"/>
<path d="M137.981 210.482H152.895V225.552H137.981V210.482Z" fill="#FF7C06"/>
<path d="M123.067 210.482H137.98V225.552H123.067V210.482Z" fill="#FF7C06"/>
<path d="M108.155 210.482H123.068V225.552H108.155V210.482Z" fill="#181425"/>
<path d="M93.2408 210.482H108.154V225.552H93.2408V210.482Z" fill="#FF7C06"/>
<path d="M78.3267 210.482H93.2402V225.552H78.3267V210.482Z" fill="#181425"/>
<path d="M63.4127 210.482H78.3262V225.552H63.4127V210.482Z" fill="#262B44"/>
<path d="M48.5006 210.482H63.4141V225.552H48.5006V210.482Z" fill="#181425"/>
<path d="M376.116 225.552H391.029V240.621H376.116V225.552Z" fill="#181425"/>
<path d="M361.202 225.552H376.115V240.621H361.202V225.552Z" fill="#262B44"/>
<path d="M346.29 225.552H361.203V240.621H346.29V225.552Z" fill="#181425"/>
<path d="M331.376 225.552H346.289V240.621H331.376V225.552Z" fill="#181425"/>
<path d="M316.462 225.552H331.375V240.621H316.462V225.552Z" fill="#181425"/>
<path d="M301.79 225.552H316.703V240.621H301.79V225.552Z" fill="#181425"/>
<path d="M286.876 225.552H301.789V240.621H286.876V225.552Z" fill="white"/>
<path d="M271.962 225.552H286.875V240.621H271.962V225.552Z" fill="white"/>
<path d="M257.047 225.552H271.961V240.621H257.047V225.552Z" fill="#181425"/>
<path d="M242.135 225.552H257.049V240.621H242.135V225.552Z" fill="#E45C00"/>
<path d="M227.221 225.552H242.135V240.621H227.221V225.552Z" fill="#FF7C06"/>
<path d="M212.307 225.552H227.221V240.621H212.307V225.552Z" fill="#FF7C06"/>
<path d="M197.395 225.552H212.309V240.621H197.395V225.552Z" fill="#FF7C06"/>
<path d="M182.481 225.552H197.395V240.621H182.481V225.552Z" fill="#FF7C06"/>
<path d="M167.807 225.552H182.721V240.621H167.807V225.552Z" fill="#FF7C06"/>
<path d="M152.895 225.552H167.809V240.621H152.895V225.552Z" fill="#FF7C06"/>
<path d="M137.981 225.552H152.895V240.621H137.981V225.552Z" fill="#FF7C06"/>
<path d="M123.067 225.552H137.98V240.621H123.067V225.552Z" fill="#181425"/>
<path d="M108.155 225.552H123.068V240.621H108.155V225.552Z" fill="white"/>
<path d="M93.2408 225.552H108.154V240.621H93.2408V225.552Z" fill="#181425"/>
<path d="M78.3267 225.552H93.2402V240.621H78.3267V225.552Z" fill="#181425"/>
<path d="M63.4127 225.552H78.3262V240.621H63.4127V225.552Z" fill="#262B44"/>
<path d="M48.5006 225.552H63.4141V240.621H48.5006V225.552Z" fill="#181425"/>
<path d="M33.5865 225.552H48.5V240.621H33.5865V225.552Z" fill="#181425"/>
<path d="M18.9127 225.552H33.8262V240.621H18.9127V225.552Z" fill="#181425"/>
<path d="M361.202 240.62H376.115V255.689H361.202V240.62Z" fill="#181425"/>
<path d="M346.29 240.62H361.203V255.689H346.29V240.62Z" fill="#C6C6C6"/>
<path d="M331.376 240.62H346.289V255.689H331.376V240.62Z" fill="white"/>
<path d="M316.462 240.62H331.375V255.689H316.462V240.62Z" fill="white"/>
<path d="M301.79 240.62H316.703V255.689H301.79V240.62Z" fill="#181425"/>
<path d="M286.876 240.62H301.789V255.689H286.876V240.62Z" fill="#181425"/>
<path d="M271.962 240.62H286.875V255.689H271.962V240.62Z" fill="#C6C6C6"/>
<path d="M257.047 240.62H271.961V255.689H257.047V240.62Z" fill="white"/>
<path d="M242.135 240.62H257.049V255.689H242.135V240.62Z" fill="#181425"/>
<path d="M227.221 240.62H242.135V255.689H227.221V240.62Z" fill="#E45C00"/>
<path d="M212.307 240.62H227.221V255.689H212.307V240.62Z" fill="#E45C00"/>
<path d="M197.395 240.62H212.309V255.689H197.395V240.62Z" fill="#FF7C06"/>
<path d="M182.481 240.62H197.395V255.689H182.481V240.62Z" fill="#FF7C06"/>
<path d="M167.807 240.62H182.721V255.689H167.807V240.62Z" fill="#FF7C06"/>
<path d="M152.895 240.62H167.809V255.689H152.895V240.62Z" fill="#FF7C06"/>
<path d="M137.981 240.62H152.895V255.689H137.981V240.62Z" fill="#181425"/>
<path d="M123.067 240.62H137.98V255.689H123.067V240.62Z" fill="white"/>
<path d="M108.155 240.62H123.068V255.689H108.155V240.62Z" fill="white"/>
<path d="M93.2408 240.62H108.154V255.689H93.2408V240.62Z" fill="#181425"/>
<path d="M63.4127 240.62H78.3262V255.689H63.4127V240.62Z" fill="#181425"/>
<path d="M48.5006 240.62H63.4141V255.689H48.5006V240.62Z" fill="#C6C6C6"/>
<path d="M33.5865 240.62H48.5V255.689H33.5865V240.62Z" fill="white"/>
<path d="M18.9127 240.62H33.8262V255.689H18.9127V240.62Z" fill="white"/>
<path d="M4.00057 240.62H18.9141V255.689H4.00057V240.62Z" fill="#181425"/>
<path d="M361.202 255.689H376.115V270.759H361.202V255.689Z" fill="#181425"/>
<path d="M346.29 255.689H361.203V270.759H346.29V255.689Z" fill="#C6C6C6"/>
<path d="M331.376 255.689H346.289V270.759H331.376V255.689Z" fill="white"/>
<path d="M316.462 255.689H331.375V270.759H316.462V255.689Z" fill="white"/>
<path d="M301.79 255.689H316.703V270.759H301.79V255.689Z" fill="#181425"/>
<path d="M286.876 255.689H301.789V270.759H286.876V255.689Z" fill="#C6C6C6"/>
<path d="M271.962 255.689H286.875V270.759H271.962V255.689Z" fill="#181425"/>
<path d="M257.047 255.689H271.961V270.759H257.047V255.689Z" fill="white"/>
<path d="M242.135 255.689H257.049V270.759H242.135V255.689Z" fill="#181425"/>
<path d="M227.221 255.689H242.135V270.759H227.221V255.689Z" fill="#181425"/>
<path d="M212.307 255.689H227.221V270.759H212.307V255.689Z" fill="#181425"/>
<path d="M197.395 255.689H212.309V270.759H197.395V255.689Z" fill="#181425"/>
<path d="M182.481 255.689H197.395V270.759H182.481V255.689Z" fill="#181425"/>
<path d="M167.807 255.689H182.721V270.759H167.807V255.689Z" fill="#181425"/>
<path d="M152.895 255.689H167.809V270.759H152.895V255.689Z" fill="#181425"/>
<path d="M137.981 255.689H152.895V270.759H137.981V255.689Z" fill="white"/>
<path d="M123.067 255.689H137.98V270.759H123.067V255.689Z" fill="white"/>
<path d="M108.155 255.689H123.068V270.759H108.155V255.689Z" fill="#181425"/>
<path d="M63.4127 255.689H78.3262V270.759H63.4127V255.689Z" fill="#181425"/>
<path d="M48.5006 255.689H63.4141V270.759H48.5006V255.689Z" fill="#C6C6C6"/>
<path d="M33.5865 255.689H48.5V270.759H33.5865V255.689Z" fill="white"/>
<path d="M18.9127 255.689H33.8262V270.759H18.9127V255.689Z" fill="white"/>
<path d="M4.00057 255.689H18.9141V270.759H4.00057V255.689Z" fill="#181425"/>
<path d="M361.202 270.759H376.115V285.828H361.202V270.759Z" fill="#181425"/>
<path d="M346.29 270.759H361.203V285.828H346.29V270.759Z" fill="#C6C6C6"/>
<path d="M331.376 270.759H346.289V285.828H331.376V270.759Z" fill="white"/>
<path d="M316.462 270.759H331.375V285.828H316.462V270.759Z" fill="white"/>
<path d="M301.79 270.759H316.703V285.828H301.79V270.759Z" fill="#181425"/>
<path d="M286.876 270.759H301.789V285.828H286.876V270.759Z" fill="#181425"/>
<path d="M271.962 270.759H286.875V285.828H271.962V270.759Z" fill="#181425"/>
<path d="M257.047 270.759H271.961V285.828H257.047V270.759Z" fill="#181425"/>
<path d="M242.135 270.759H257.049V285.828H242.135V270.759Z" fill="#181425"/>
<path d="M227.221 270.759H242.135V285.828H227.221V270.759Z" fill="#E45C00"/>
<path d="M212.307 270.759H227.221V285.828H212.307V270.759Z" fill="#E45C00"/>
<path d="M197.395 270.759H212.309V285.828H197.395V270.759Z" fill="#E45C00"/>
<path d="M182.481 270.759H197.395V285.828H182.481V270.759Z" fill="#FF7C06"/>
<path d="M167.807 270.759H182.721V285.828H167.807V270.759Z" fill="#FF7C06"/>
<path d="M152.895 270.759H167.809V285.828H152.895V270.759Z" fill="#181425"/>
<path d="M137.981 270.759H152.895V285.828H137.981V270.759Z" fill="#181425"/>
<path d="M123.067 270.759H137.98V285.828H123.067V270.759Z" fill="#181425"/>
<path d="M63.4127 270.759H78.3262V285.828H63.4127V270.759Z" fill="#181425"/>
<path d="M48.5006 270.759H63.4141V285.828H48.5006V270.759Z" fill="#C6C6C6"/>
<path d="M33.5865 270.759H48.5V285.828H33.5865V270.759Z" fill="white"/>
<path d="M18.9127 270.759H33.8262V285.828H18.9127V270.759Z" fill="white"/>
<path d="M4.00057 270.759H18.9141V285.828H4.00057V270.759Z" fill="#181425"/>
<path d="M346.29 285.828H361.203V300.897H346.29V285.828Z" fill="#181425"/>
<path d="M331.376 285.828H346.289V300.897H331.376V285.828Z" fill="#181425"/>
<path d="M316.462 285.828H331.375V300.897H316.462V285.828Z" fill="#181425"/>
<path d="M286.876 285.828H301.789V300.897H286.876V285.828Z" fill="#181425"/>
<path d="M271.962 285.828H286.875V300.897H271.962V285.828Z" fill="#262B44"/>
<path d="M257.047 285.828H271.961V300.897H257.047V285.828Z" fill="#181425"/>
<path d="M242.135 285.828H257.049V300.897H242.135V285.828Z" fill="#181425"/>
<path d="M227.221 285.828H242.135V300.897H227.221V285.828Z" fill="#181425"/>
<path d="M212.307 285.828H227.221V300.897H212.307V285.828Z" fill="#181425"/>
<path d="M197.395 285.828H212.309V300.897H197.395V285.828Z" fill="#181425"/>
<path d="M182.481 285.828H197.395V300.897H182.481V285.828Z" fill="#181425"/>
<path d="M167.807 285.828H182.721V300.897H167.807V285.828Z" fill="#181425"/>
<path d="M152.895 285.828H167.809V300.897H152.895V285.828Z" fill="#181425"/>
<path d="M137.981 285.828H152.895V300.897H137.981V285.828Z" fill="#262B44"/>
<path d="M123.067 285.828H137.98V300.897H123.067V285.828Z" fill="#181425"/>
<path d="M48.5006 285.828H63.4141V300.897H48.5006V285.828Z" fill="#181425"/>
<path d="M33.5865 285.828H48.5V300.897H33.5865V285.828Z" fill="#181425"/>
<path d="M18.9127 285.828H33.8262V300.897H18.9127V285.828Z" fill="#181425"/>
<path d="M286.876 300.897H301.789V315.967H286.876V300.897Z" fill="#181425"/>
<path d="M271.962 300.897H286.875V315.967H271.962V300.897Z" fill="#262B44"/>
<path d="M257.047 300.897H271.961V315.967H257.047V300.897Z" fill="#181425"/>
<path d="M152.895 300.897H167.809V315.967H152.895V300.897Z" fill="#181425"/>
<path d="M137.981 300.897H152.895V315.967H137.981V300.897Z" fill="#262B44"/>
<path d="M123.067 300.897H137.98V315.967H123.067V300.897Z" fill="#262B44"/>
<path d="M108.155 300.897H123.068V315.967H108.155V300.897Z" fill="#181425"/>
<path d="M301.79 315.967H316.703V331.036H301.79V315.967Z" fill="#181425"/>
<path d="M286.876 315.967H301.789V331.036H286.876V315.967Z" fill="#181425"/>
<path d="M271.962 315.967H286.875V331.036H271.962V315.967Z" fill="#181425"/>
<path d="M257.047 315.967H271.961V331.036H257.047V315.967Z" fill="#181425"/>
<path d="M137.981 315.967H152.895V331.036H137.981V315.967Z" fill="#181425"/>
<path d="M123.067 315.967H137.98V331.036H123.067V315.967Z" fill="#181425"/>
<path d="M108.155 315.967H123.068V331.036H108.155V315.967Z" fill="#181425"/>
<path d="M93.2408 315.967H108.154V331.036H93.2408V315.967Z" fill="#181425"/>
<path d="M316.462 331.035H331.375V346.104H316.462V331.035Z" fill="#181425"/>
<path d="M301.79 331.035H316.703V346.104H301.79V331.035Z" fill="#FF7C06"/>
<path d="M286.876 331.035H301.789V346.104H286.876V331.035Z" fill="white"/>
<path d="M271.962 331.035H286.875V346.104H271.962V331.035Z" fill="white"/>
<path d="M257.047 331.035H271.961V346.104H257.047V331.035Z" fill="#FF7C06"/>
<path d="M242.135 331.035H257.049V346.104H242.135V331.035Z" fill="#181425"/>
<path d="M152.895 331.035H167.809V346.104H152.895V331.035Z" fill="#181425"/>
<path d="M137.981 331.035H152.895V346.104H137.981V331.035Z" fill="#FF7C06"/>
<path d="M123.067 331.035H137.98V346.104H123.067V331.035Z" fill="#FF7C06"/>
<path d="M108.155 331.035H123.068V346.104H108.155V331.035Z" fill="white"/>
<path d="M93.2408 331.035H108.154V346.104H93.2408V331.035Z" fill="white"/>
<path d="M78.3267 331.035H93.2402V346.104H78.3267V331.035Z" fill="#181425"/>
<path d="M316.462 346.104H331.375V361.174H316.462V346.104Z" fill="#181425"/>
<path d="M301.79 346.104H316.703V361.174H301.79V346.104Z" fill="#E45C00"/>
<path d="M286.876 346.104H301.789V361.174H286.876V346.104Z" fill="#E45C00"/>
<path d="M271.962 346.104H286.875V361.174H271.962V346.104Z" fill="#E45C00"/>
<path d="M257.047 346.104H271.961V361.174H257.047V346.104Z" fill="#E45C00"/>
<path d="M242.135 346.104H257.049V361.174H242.135V346.104Z" fill="#181425"/>
<path d="M152.895 346.104H167.809V361.174H152.895V346.104Z" fill="#181425"/>
<path d="M137.981 346.104H152.895V361.174H137.981V346.104Z" fill="#E45C00"/>
<path d="M123.067 346.104H137.98V361.174H123.067V346.104Z" fill="#E45C00"/>
<path d="M108.155 346.104H123.068V361.174H108.155V346.104Z" fill="#E45C00"/>
<path d="M93.2408 346.104H108.154V361.174H93.2408V346.104Z" fill="#E45C00"/>
<path d="M78.3267 346.104H93.2402V361.174H78.3267V346.104Z" fill="#E45C00"/>
<path d="M63.4127 346.104H78.3262V361.174H63.4127V346.104Z" fill="#181425"/>
<path d="M316.462 360.931H331.375V376H316.462V360.931Z" fill="#181425"/>
<path d="M301.79 360.931H316.703V376H301.79V360.931Z" fill="#181425"/>
<path d="M286.876 360.931H301.789V376H286.876V360.931Z" fill="#181425"/>
<path d="M271.962 360.931H286.875V376H271.962V360.931Z" fill="#181425"/>
<path d="M257.047 360.931H271.961V376H257.047V360.931Z" fill="#181425"/>
<path d="M242.135 360.931H257.049V376H242.135V360.931Z" fill="#181425"/>
<path d="M152.895 360.931H167.809V376H152.895V360.931Z" fill="#181425"/>
<path d="M137.981 360.931H152.895V376H137.981V360.931Z" fill="#181425"/>
<path d="M123.067 360.931H137.98V376H123.067V360.931Z" fill="#181425"/>
<path d="M108.155 360.931H123.068V376H108.155V360.931Z" fill="#181425"/>
<path d="M93.2408 360.931H108.154V376H93.2408V360.931Z" fill="#181425"/>
<path d="M78.3267 360.931H93.2402V376H78.3267V360.931Z" fill="#181425"/>
<path d="M63.4127 360.931H78.3262V376H63.4127V360.931Z" fill="#181425"/>
</g>
<defs>
<filter id="filter0_d_157_897" x="0" y="0" width="395.029" height="384" filterUnits="userSpaceOnUse" color-interpolation-filters="sRGB">
<feFlood flood-opacity="0" result="BackgroundImageFix"/>
<feColorMatrix in="SourceAlpha" type="matrix" values="0 0 0 0 0 0 0 0 0 0 0 0 0 0 0 0 0 0 127 0" result="hardAlpha"/>
<feOffset dy="4"/>
<feGaussianBlur stdDeviation="2"/>
<feComposite in2="hardAlpha" operator="out"/>
<feColorMatrix type="matrix" values="0 0 0 0 0 0 0 0 0 0 0 0 0 0 0 0 0 0 0.25 0"/>
<feBlend mode="normal" in2="BackgroundImageFix" result="effect1_dropShadow_157_897"/>
<feBlend mode="normal" in="SourceGraphic" in2="effect1_dropShadow_157_897" result="shape"/>
</filter>
<clipPath id="clip0_157_897">
<rect width="387.029" height="376" fill="white" transform="matrix(-1 0 0 1 391.029 0)"/>
</clipPath>
</defs>
</svg>
