<svg width="1104" height="384" viewBox="0 0 1104 384" fill="none" xmlns="http://www.w3.org/2000/svg">
<g clip-path="url(#clip0_172_2427)" filter="url(#filter0_d_172_2427)">
<path d="M979.962 0H994.875V15.0692H979.962V0Z" fill="#181425"/>
<path d="M965.047 0H979.961V15.0692H965.047V0Z" fill="#181425"/>
<path d="M950.135 0H965.049V15.0692H950.135V0Z" fill="#181425"/>
<path d="M935.221 0H950.135V15.0692H935.221V0Z" fill="#181425"/>
<path d="M920.307 0H935.221V15.0692H920.307V0Z" fill="#181425"/>
<path d="M905.395 0H920.309V15.0692H905.395V0Z" fill="#181425"/>
<path d="M890.481 0H905.395V15.0692H890.481V0Z" fill="#181425"/>
<path d="M875.807 0H890.721V15.0692H875.807V0Z" fill="#181425"/>
<path d="M860.895 0H875.809V15.0692H860.895V0Z" fill="#181425"/>
<path d="M1009.79 15.0693H1024.7V30.1385H1009.79V15.0693Z" fill="#181425"/>
<path d="M994.876 15.0693H1009.79V30.1385H994.876V15.0693Z" fill="#181425"/>
<path d="M979.962 15.0693H994.875V30.1385H979.962V15.0693Z" fill="#E45C00"/>
<path d="M965.047 15.0693H979.961V30.1385H965.047V15.0693Z" fill="#181425"/>
<path d="M950.135 15.0693H965.049V30.1385H950.135V15.0693Z" fill="#181425"/>
<path d="M935.221 15.0693H950.135V30.1385H935.221V15.0693Z" fill="#E45C00"/>
<path d="M920.307 15.0693H935.221V30.1385H920.307V15.0693Z" fill="#E45C00"/>
<path d="M905.395 15.0693H920.309V30.1385H905.395V15.0693Z" fill="#E45C00"/>
<path d="M890.481 15.0693H905.395V30.1385H890.481V15.0693Z" fill="#FF7C06"/>
<path d="M875.807 15.0693H890.721V30.1385H875.807V15.0693Z" fill="#FF7C06"/>
<path d="M860.895 15.0693H875.809V30.1385H860.895V15.0693Z" fill="#181425"/>
<path d="M845.981 15.0693H860.895V30.1385H845.981V15.0693Z" fill="#181425"/>
<path d="M831.067 15.0693H845.98V30.1385H831.067V15.0693Z" fill="#181425"/>
<path d="M1024.46 30.1387H1039.38V45.2078H1024.46V30.1387Z" fill="#181425"/>
<path d="M1009.79 30.1387H1024.7V45.2078H1009.79V30.1387Z" fill="white"/>
<path d="M994.876 30.1387H1009.79V45.2078H994.876V30.1387Z" fill="white"/>
<path d="M979.962 30.1387H994.875V45.2078H979.962V30.1387Z" fill="#181425"/>
<path d="M965.047 30.1387H979.961V45.2078H965.047V30.1387Z" fill="white"/>
<path d="M950.135 30.1387H965.049V45.2078H950.135V30.1387Z" fill="#181425"/>
<path d="M935.221 30.1387H950.135V45.2078H935.221V30.1387Z" fill="#181425"/>
<path d="M920.307 30.1387H935.221V45.2078H920.307V30.1387Z" fill="#181425"/>
<path d="M905.395 30.1387H920.309V45.2078H905.395V30.1387Z" fill="#181425"/>
<path d="M890.481 30.1387H905.395V45.2078H890.481V30.1387Z" fill="#181425"/>
<path d="M875.807 30.1387H890.721V45.2078H875.807V30.1387Z" fill="#181425"/>
<path d="M860.895 30.1387H875.809V45.2078H860.895V30.1387Z" fill="#181425"/>
<path d="M845.981 30.1387H860.895V45.2078H845.981V30.1387Z" fill="white"/>
<path d="M831.067 30.1387H845.98V45.2078H831.067V30.1387Z" fill="white"/>
<path d="M816.155 30.1387H831.068V45.2078H816.155V30.1387Z" fill="#181425"/>
<path d="M1039.38 45.207H1054.29V60.2762H1039.38V45.207Z" fill="#181425"/>
<path d="M1024.46 45.207H1039.38V60.2762H1024.46V45.207Z" fill="white"/>
<path d="M1009.79 45.207H1024.7V60.2762H1009.79V45.207Z" fill="white"/>
<path d="M994.876 45.207H1009.79V60.2762H994.876V45.207Z" fill="#181425"/>
<path d="M979.962 45.207H994.875V60.2762H979.962V45.207Z" fill="white"/>
<path d="M965.047 45.207H979.961V60.2762H965.047V45.207Z" fill="#C6C6C6"/>
<path d="M950.135 45.207H965.049V60.2762H950.135V45.207Z" fill="#181425"/>
<path d="M935.221 45.207H950.135V60.2762H935.221V45.207Z" fill="#E45C00"/>
<path d="M920.307 45.207H935.221V60.2762H920.307V45.207Z" fill="#E45C00"/>
<path d="M905.395 45.207H920.309V60.2762H905.395V45.207Z" fill="#FF7C06"/>
<path d="M890.481 45.207H905.395V60.2762H890.481V45.207Z" fill="#FF7C06"/>
<path d="M875.807 45.207H890.721V60.2762H875.807V45.207Z" fill="#FF7C06"/>
<path d="M860.895 45.207H875.809V60.2762H860.895V45.207Z" fill="#FF7C06"/>
<path d="M845.981 45.207H860.895V60.2762H845.981V45.207Z" fill="#181425"/>
<path d="M831.067 45.207H845.98V60.2762H831.067V45.207Z" fill="#C6C6C6"/>
<path d="M816.155 45.207H831.068V60.2762H816.155V45.207Z" fill="white"/>
<path d="M801.241 45.207H816.154V60.2762H801.241V45.207Z" fill="#181425"/>
<path d="M1054.29 60.2764H1069.2V75.3455H1054.29V60.2764Z" fill="#181425"/>
<path d="M1039.38 60.2764H1054.29V75.3455H1039.38V60.2764Z" fill="#181425"/>
<path d="M1024.46 60.2764H1039.38V75.3455H1024.46V60.2764Z" fill="#181425"/>
<path d="M1009.79 60.2764H1024.7V75.3455H1009.79V60.2764Z" fill="#181425"/>
<path d="M994.876 60.2764H1009.79V75.3455H994.876V60.2764Z" fill="white"/>
<path d="M979.962 60.2764H994.875V75.3455H979.962V60.2764Z" fill="#C6C6C6"/>
<path d="M965.047 60.2764H979.961V75.3455H965.047V60.2764Z" fill="#181425"/>
<path d="M950.135 60.2764H965.049V75.3455H950.135V60.2764Z" fill="#E45C00"/>
<path d="M935.221 60.2764H950.135V75.3455H935.221V60.2764Z" fill="#FF7C06"/>
<path d="M920.307 60.2764H935.221V75.3455H920.307V60.2764Z" fill="#FF7C06"/>
<path d="M905.395 60.2764H920.309V75.3455H905.395V60.2764Z" fill="#FF7C06"/>
<path d="M890.481 60.2764H905.395V75.3455H890.481V60.2764Z" fill="#FF7C06"/>
<path d="M875.807 60.2764H890.721V75.3455H875.807V60.2764Z" fill="#FF7C06"/>
<path d="M860.895 60.2764H875.809V75.3455H860.895V60.2764Z" fill="#FF7C06"/>
<path d="M845.981 60.2764H860.895V75.3455H845.981V60.2764Z" fill="#FF7C06"/>
<path d="M831.067 60.2764H845.98V75.3455H831.067V60.2764Z" fill="#181425"/>
<path d="M816.155 60.2764H831.068V75.3455H816.155V60.2764Z" fill="white"/>
<path d="M801.241 60.2764H816.154V75.3455H801.241V60.2764Z" fill="#181425"/>
<path d="M786.327 60.2764H801.24V75.3455H786.327V60.2764Z" fill="#181425"/>
<path d="M1054.29 75.1025H1069.2V90.1717H1054.29V75.1025Z" fill="#181425"/>
<path d="M1039.38 75.1025H1054.29V90.1717H1039.38V75.1025Z" fill="#E45C00"/>
<path d="M1024.46 75.1025H1039.38V90.1717H1024.46V75.1025Z" fill="#E45C00"/>
<path d="M1009.79 75.1025H1024.7V90.1717H1009.79V75.1025Z" fill="#181425"/>
<path d="M994.876 75.1025H1009.79V90.1717H994.876V75.1025Z" fill="#181425"/>
<path d="M979.962 75.1025H994.875V90.1717H979.962V75.1025Z" fill="#181425"/>
<path d="M965.047 75.1025H979.961V90.1717H965.047V75.1025Z" fill="#E45C00"/>
<path d="M950.135 75.1025H965.049V90.1717H950.135V75.1025Z" fill="#FF7C06"/>
<path d="M935.221 75.1025H950.135V90.1717H935.221V75.1025Z" fill="#181425"/>
<path d="M920.307 75.1025H935.221V90.1717H920.307V75.1025Z" fill="#181425"/>
<path d="M905.395 75.1025H920.309V90.1717H905.395V75.1025Z" fill="#FF7C06"/>
<path d="M890.481 75.1025H905.395V90.1717H890.481V75.1025Z" fill="#FF7C06"/>
<path d="M875.807 75.1025H890.721V90.1717H875.807V75.1025Z" fill="#FF7C06"/>
<path d="M860.895 75.1025H875.809V90.1717H860.895V75.1025Z" fill="#FF7C06"/>
<path d="M845.981 75.1025H860.895V90.1717H845.981V75.1025Z" fill="#181425"/>
<path d="M831.067 75.1025H845.98V90.1717H831.067V75.1025Z" fill="#FF7C06"/>
<path d="M816.155 75.1025H831.068V90.1717H816.155V75.1025Z" fill="#181425"/>
<path d="M801.241 75.1025H816.154V90.1717H801.241V75.1025Z" fill="#FF7C06"/>
<path d="M786.327 75.1025H801.24V90.1717H786.327V75.1025Z" fill="#181425"/>
<path d="M1069.2 90.1719H1084.12V105.241H1069.2V90.1719Z" fill="#181425"/>
<path d="M1054.29 90.1719H1069.2V105.241H1054.29V90.1719Z" fill="#E45C00"/>
<path d="M1039.38 90.1719H1054.29V105.241H1039.38V90.1719Z" fill="#E45C00"/>
<path d="M1024.46 90.1719H1039.38V105.241H1024.46V90.1719Z" fill="#181425"/>
<path d="M1009.79 90.1719H1024.7V105.241H1009.79V90.1719Z" fill="#FF7C06"/>
<path d="M994.876 90.1719H1009.79V105.241H994.876V90.1719Z" fill="#181425"/>
<path d="M979.962 90.1719H994.875V105.241H979.962V90.1719Z" fill="#E45C00"/>
<path d="M965.047 90.1719H979.961V105.241H965.047V90.1719Z" fill="#E45C00"/>
<path d="M950.135 90.1719H965.049V105.241H950.135V90.1719Z" fill="#FF7C06"/>
<path d="M935.221 90.1719H950.135V105.241H935.221V90.1719Z" fill="#FF7C06"/>
<path d="M920.307 90.1719H935.221V105.241H920.307V90.1719Z" fill="#FF7C06"/>
<path d="M905.395 90.1719H920.309V105.241H905.395V90.1719Z" fill="#FF7C06"/>
<path d="M890.481 90.1719H905.395V105.241H890.481V90.1719Z" fill="#FF7C06"/>
<path d="M875.807 90.1719H890.721V105.241H875.807V90.1719Z" fill="#FF7C06"/>
<path d="M860.895 90.1719H875.809V105.241H860.895V90.1719Z" fill="#FF7C06"/>
<path d="M845.981 90.1719H860.895V105.241H845.981V90.1719Z" fill="#FF7C06"/>
<path d="M831.067 90.1719H845.98V105.241H831.067V90.1719Z" fill="#FF7C06"/>
<path d="M816.155 90.1719H831.068V105.241H816.155V90.1719Z" fill="#FF7C06"/>
<path d="M801.241 90.1719H816.154V105.241H801.241V90.1719Z" fill="#181425"/>
<path d="M786.327 90.1719H801.24V105.241H786.327V90.1719Z" fill="#FF7C06"/>
<path d="M771.413 90.1719H786.326V105.241H771.413V90.1719Z" fill="#181425"/>
<path d="M1069.2 105.241H1084.12V120.31H1069.2V105.241Z" fill="#181425"/>
<path d="M1054.29 105.241H1069.2V120.31H1054.29V105.241Z" fill="#181425"/>
<path d="M1039.38 105.241H1054.29V120.31H1039.38V105.241Z" fill="#181425"/>
<path d="M1024.46 105.241H1039.38V120.31H1024.46V105.241Z" fill="#181425"/>
<path d="M1009.79 105.241H1024.7V120.31H1009.79V105.241Z" fill="#FF7C06"/>
<path d="M994.876 105.241H1009.79V120.31H994.876V105.241Z" fill="#181425"/>
<path d="M979.962 105.241H994.875V120.31H979.962V105.241Z" fill="#E45C00"/>
<path d="M965.047 105.241H979.961V120.31H965.047V105.241Z" fill="#181425"/>
<path d="M950.135 105.241H965.049V120.31H950.135V105.241Z" fill="#181425"/>
<path d="M935.221 105.241H950.135V120.31H935.221V105.241Z" fill="#181425"/>
<path d="M920.307 105.241H935.221V120.31H920.307V105.241Z" fill="#181425"/>
<path d="M905.395 105.241H920.309V120.31H905.395V105.241Z" fill="#FF7C06"/>
<path d="M890.481 105.241H905.395V120.31H890.481V105.241Z" fill="#FF7C06"/>
<path d="M875.807 105.241H890.721V120.31H875.807V105.241Z" fill="#FF7C06"/>
<path d="M860.895 105.241H875.809V120.31H860.895V105.241Z" fill="#FF7C06"/>
<path d="M845.981 105.241H860.895V120.31H845.981V105.241Z" fill="#FF7C06"/>
<path d="M831.067 105.241H845.98V120.31H831.067V105.241Z" fill="#181425"/>
<path d="M816.155 105.241H831.068V120.31H816.155V105.241Z" fill="#181425"/>
<path d="M801.241 105.241H816.154V120.31H801.241V105.241Z" fill="#181425"/>
<path d="M786.327 105.241H801.24V120.31H786.327V105.241Z" fill="#FF7C06"/>
<path d="M771.413 105.241H786.326V120.31H771.413V105.241Z" fill="#181425"/>
<path d="M1084.12 120.311H1099.03V135.38H1084.12V120.311Z" fill="#181425"/>
<path d="M1069.2 120.311H1084.12V135.38H1069.2V120.311Z" fill="#C6C6C6"/>
<path d="M1054.29 120.311H1069.2V135.38H1054.29V120.311Z" fill="white"/>
<path d="M1039.38 120.311H1054.29V135.38H1039.38V120.311Z" fill="#181425"/>
<path d="M1024.46 120.311H1039.38V135.38H1024.46V120.311Z" fill="white"/>
<path d="M1009.79 120.311H1024.7V135.38H1009.79V120.311Z" fill="#181425"/>
<path d="M994.876 120.311H1009.79V135.38H994.876V120.311Z" fill="#181425"/>
<path d="M979.962 120.311H994.875V135.38H979.962V120.311Z" fill="#181425"/>
<path d="M965.047 120.311H979.961V135.38H965.047V120.311Z" fill="#181425"/>
<path d="M950.135 120.311H965.049V135.38H950.135V120.311Z" fill="#181425"/>
<path d="M935.221 120.311H950.135V135.38H935.221V120.311Z" fill="#181425"/>
<path d="M920.307 120.311H935.221V135.38H920.307V120.311Z" fill="#181425"/>
<path d="M905.395 120.311H920.309V135.38H905.395V120.311Z" fill="#181425"/>
<path d="M890.481 120.311H905.395V135.38H890.481V120.311Z" fill="#FF7C06"/>
<path d="M875.807 120.311H890.721V135.38H875.807V120.311Z" fill="#FF7C06"/>
<path d="M860.895 120.311H875.809V135.38H860.895V120.311Z" fill="#FF7C06"/>
<path d="M845.981 120.311H860.895V135.38H845.981V120.311Z" fill="#181425"/>
<path d="M831.067 120.311H845.98V135.38H831.067V120.311Z" fill="#181425"/>
<path d="M816.155 120.311H831.068V135.38H816.155V120.311Z" fill="#181425"/>
<path d="M801.241 120.311H816.154V135.38H801.241V120.311Z" fill="#181425"/>
<path d="M786.327 120.311H801.24V135.38H786.327V120.311Z" fill="#181425"/>
<path d="M771.413 120.311H786.326V135.38H771.413V120.311Z" fill="white"/>
<path d="M756.501 120.311H771.414V135.38H756.501V120.311Z" fill="#181425"/>
<path d="M1084.12 135.38H1099.03V150.449H1084.12V135.38Z" fill="#181425"/>
<path d="M1069.2 135.38H1084.12V150.449H1069.2V135.38Z" fill="#C6C6C6"/>
<path d="M1054.29 135.38H1069.2V150.449H1054.29V135.38Z" fill="white"/>
<path d="M1039.38 135.38H1054.29V150.449H1039.38V135.38Z" fill="#181425"/>
<path d="M1024.46 135.38H1039.38V150.449H1024.46V135.38Z" fill="white"/>
<path d="M1009.79 135.38H1024.7V150.449H1009.79V135.38Z" fill="#181425"/>
<path d="M994.876 135.38H1009.79V150.449H994.876V135.38Z" fill="#181425"/>
<path d="M979.962 135.38H994.875V150.449H979.962V135.38Z" fill="#181425"/>
<path d="M965.047 135.38H979.961V150.449H965.047V135.38Z" fill="#181425"/>
<path d="M950.135 135.38H965.049V150.449H950.135V135.38Z" fill="white"/>
<path d="M935.221 135.38H950.135V150.449H935.221V135.38Z" fill="#3978A8"/>
<path d="M920.307 135.38H935.221V150.449H920.307V135.38Z" fill="#3978A8"/>
<path d="M905.395 135.38H920.309V150.449H905.395V135.38Z" fill="#181425"/>
<path d="M890.481 135.38H905.395V150.449H890.481V135.38Z" fill="#181425"/>
<path d="M875.807 135.38H890.721V150.449H875.807V135.38Z" fill="#181425"/>
<path d="M860.895 135.38H875.809V150.449H860.895V135.38Z" fill="#181425"/>
<path d="M845.981 135.38H860.895V150.449H845.981V135.38Z" fill="#181425"/>
<path d="M831.067 135.38H845.98V150.449H831.067V135.38Z" fill="#181425"/>
<path d="M816.155 135.38H831.068V150.449H816.155V135.38Z" fill="#3978A8"/>
<path d="M801.241 135.38H816.154V150.449H801.241V135.38Z" fill="#3978A8"/>
<path d="M786.327 135.38H801.24V150.449H786.327V135.38Z" fill="#181425"/>
<path d="M771.413 135.38H786.326V150.449H771.413V135.38Z" fill="white"/>
<path d="M756.501 135.38H771.414V150.449H756.501V135.38Z" fill="#181425"/>
<path d="M1084.12 150.448H1099.03V165.517H1084.12V150.448Z" fill="#181425"/>
<path d="M1069.2 150.448H1084.12V165.517H1069.2V150.448Z" fill="#C6C6C6"/>
<path d="M1054.29 150.448H1069.2V165.517H1054.29V150.448Z" fill="white"/>
<path d="M1039.38 150.448H1054.29V165.517H1039.38V150.448Z" fill="#181425"/>
<path d="M1024.46 150.448H1039.38V165.517H1024.46V150.448Z" fill="white"/>
<path d="M1009.79 150.448H1024.7V165.517H1009.79V150.448Z" fill="#181425"/>
<path d="M994.876 150.448H1009.79V165.517H994.876V150.448Z" fill="#E45C00"/>
<path d="M979.962 150.448H994.875V165.517H979.962V150.448Z" fill="#181425"/>
<path d="M965.047 150.448H979.961V165.517H965.047V150.448Z" fill="white"/>
<path d="M950.135 150.448H965.049V165.517H950.135V150.448Z" fill="white"/>
<path d="M935.221 150.448H950.135V165.517H935.221V150.448Z" fill="#3978A8"/>
<path d="M920.307 150.448H935.221V165.517H920.307V150.448Z" fill="#394778"/>
<path d="M905.395 150.448H920.309V165.517H905.395V150.448Z" fill="white"/>
<path d="M890.481 150.448H905.395V165.517H890.481V150.448Z" fill="#181425"/>
<path d="M875.807 150.448H890.721V165.517H875.807V150.448Z" fill="#181425"/>
<path d="M860.895 150.448H875.809V165.517H860.895V150.448Z" fill="#181425"/>
<path d="M845.981 150.448H860.895V165.517H845.981V150.448Z" fill="#181425"/>
<path d="M831.067 150.448H845.98V165.517H831.067V150.448Z" fill="white"/>
<path d="M816.155 150.448H831.068V165.517H816.155V150.448Z" fill="#394778"/>
<path d="M801.241 150.448H816.154V165.517H801.241V150.448Z" fill="#3978A8"/>
<path d="M786.327 150.448H801.24V165.517H786.327V150.448Z" fill="#181425"/>
<path d="M771.413 150.448H786.326V165.517H771.413V150.448Z" fill="white"/>
<path d="M756.501 150.448H771.414V165.517H756.501V150.448Z" fill="#181425"/>
<path d="M1084.12 165.518H1099.03V180.587H1084.12V165.518Z" fill="#181425"/>
<path d="M1069.2 165.518H1084.12V180.587H1069.2V165.518Z" fill="#C6C6C6"/>
<path d="M1054.29 165.518H1069.2V180.587H1054.29V165.518Z" fill="white"/>
<path d="M1039.38 165.518H1054.29V180.587H1039.38V165.518Z" fill="#181425"/>
<path d="M1024.46 165.518H1039.38V180.587H1024.46V165.518Z" fill="white"/>
<path d="M1009.79 165.518H1024.7V180.587H1009.79V165.518Z" fill="#181425"/>
<path d="M994.876 165.518H1009.79V180.587H994.876V165.518Z" fill="#E45C00"/>
<path d="M979.962 165.518H994.875V180.587H979.962V165.518Z" fill="#181425"/>
<path d="M965.047 165.518H979.961V180.587H965.047V165.518Z" fill="#181425"/>
<path d="M950.135 165.518H965.049V180.587H950.135V165.518Z" fill="white"/>
<path d="M935.221 165.518H950.135V180.587H935.221V165.518Z" fill="white"/>
<path d="M920.307 165.518H935.221V180.587H920.307V165.518Z" fill="#394778"/>
<path d="M905.395 165.518H920.309V180.587H905.395V165.518Z" fill="#181425"/>
<path d="M890.481 165.518H905.395V180.587H890.481V165.518Z" fill="#181425"/>
<path d="M875.807 165.518H890.721V180.587H875.807V165.518Z" fill="#FF7C06"/>
<path d="M860.895 165.518H875.809V180.587H860.895V165.518Z" fill="#FF7C06"/>
<path d="M845.981 165.518H860.895V180.587H845.981V165.518Z" fill="#181425"/>
<path d="M831.067 165.518H845.98V180.587H831.067V165.518Z" fill="#181425"/>
<path d="M816.155 165.518H831.068V180.587H816.155V165.518Z" fill="#394778"/>
<path d="M801.241 165.518H816.154V180.587H801.241V165.518Z" fill="#181425"/>
<path d="M786.327 165.518H801.24V180.587H786.327V165.518Z" fill="#181425"/>
<path d="M771.413 165.518H786.326V180.587H771.413V165.518Z" fill="white"/>
<path d="M756.501 165.518H771.414V180.587H756.501V165.518Z" fill="#181425"/>
<path d="M1069.2 180.587H1084.12V195.656H1069.2V180.587Z" fill="#181425"/>
<path d="M1054.29 180.587H1069.2V195.656H1054.29V180.587Z" fill="#181425"/>
<path d="M1039.38 180.587H1054.29V195.656H1039.38V180.587Z" fill="#181425"/>
<path d="M1024.46 180.587H1039.38V195.656H1024.46V180.587Z" fill="#181425"/>
<path d="M1009.79 180.587H1024.7V195.656H1009.79V180.587Z" fill="#FF7C06"/>
<path d="M994.876 180.587H1009.79V195.656H994.876V180.587Z" fill="#181425"/>
<path d="M979.962 180.587H994.875V195.656H979.962V180.587Z" fill="#E45C00"/>
<path d="M965.047 180.587H979.961V195.656H965.047V180.587Z" fill="#181425"/>
<path d="M950.135 180.587H965.049V195.656H950.135V180.587Z" fill="#181425"/>
<path d="M935.221 180.587H950.135V195.656H935.221V180.587Z" fill="#181425"/>
<path d="M920.307 180.587H935.221V195.656H920.307V180.587Z" fill="#181425"/>
<path d="M905.395 180.587H920.309V195.656H905.395V180.587Z" fill="#181425"/>
<path d="M890.481 180.587H905.395V195.656H890.481V180.587Z" fill="#FF7C06"/>
<path d="M875.807 180.587H890.721V195.656H875.807V180.587Z" fill="#FF7C06"/>
<path d="M860.895 180.587H875.809V195.656H860.895V180.587Z" fill="#FF7C06"/>
<path d="M845.981 180.587H860.895V195.656H845.981V180.587Z" fill="#FF7C06"/>
<path d="M831.067 180.587H845.98V195.656H831.067V180.587Z" fill="#181425"/>
<path d="M816.155 180.587H831.068V195.656H816.155V180.587Z" fill="#181425"/>
<path d="M801.241 180.587H816.154V195.656H801.241V180.587Z" fill="#181425"/>
<path d="M786.327 180.587H801.24V195.656H786.327V180.587Z" fill="#FF7C06"/>
<path d="M771.413 180.587H786.326V195.656H771.413V180.587Z" fill="#181425"/>
<path d="M1069.2 195.656H1084.12V210.725H1069.2V195.656Z" fill="#181425"/>
<path d="M1054.29 195.656H1069.2V210.725H1054.29V195.656Z" fill="#262B44"/>
<path d="M1039.38 195.656H1054.29V210.725H1039.38V195.656Z" fill="#262B44"/>
<path d="M1024.46 195.656H1039.38V210.725H1024.46V195.656Z" fill="#181425"/>
<path d="M1009.79 195.656H1024.7V210.725H1009.79V195.656Z" fill="#FF7C06"/>
<path d="M994.876 195.656H1009.79V210.725H994.876V195.656Z" fill="#181425"/>
<path d="M979.962 195.656H994.875V210.725H979.962V195.656Z" fill="#E45C00"/>
<path d="M965.047 195.656H979.961V210.725H965.047V195.656Z" fill="#E45C00"/>
<path d="M950.135 195.656H965.049V210.725H950.135V195.656Z" fill="#181425"/>
<path d="M935.221 195.656H950.135V210.725H935.221V195.656Z" fill="#181425"/>
<path d="M920.307 195.656H935.221V210.725H920.307V195.656Z" fill="#181425"/>
<path d="M905.395 195.656H920.309V210.725H905.395V195.656Z" fill="#FF7C06"/>
<path d="M890.481 195.656H905.395V210.725H890.481V195.656Z" fill="#FF7C06"/>
<path d="M875.807 195.656H890.721V210.725H875.807V195.656Z" fill="#FF7C06"/>
<path d="M860.895 195.656H875.809V210.725H860.895V195.656Z" fill="#FF7C06"/>
<path d="M845.981 195.656H860.895V210.725H845.981V195.656Z" fill="#181425"/>
<path d="M831.067 195.656H845.98V210.725H831.067V195.656Z" fill="#FF7C06"/>
<path d="M816.155 195.656H831.068V210.725H816.155V195.656Z" fill="#181425"/>
<path d="M801.241 195.656H816.154V210.725H801.241V195.656Z" fill="#181425"/>
<path d="M786.327 195.656H801.24V210.725H786.327V195.656Z" fill="#FF7C06"/>
<path d="M771.413 195.656H786.326V210.725H771.413V195.656Z" fill="#181425"/>
<path d="M1084.12 210.482H1099.03V225.552H1084.12V210.482Z" fill="#181425"/>
<path d="M1069.2 210.482H1084.12V225.552H1069.2V210.482Z" fill="#262B44"/>
<path d="M1054.29 210.482H1069.2V225.552H1054.29V210.482Z" fill="#262B44"/>
<path d="M1039.38 210.482H1054.29V225.552H1039.38V210.482Z" fill="#181425"/>
<path d="M1024.46 210.482H1039.38V225.552H1024.46V210.482Z" fill="#E45C00"/>
<path d="M1009.79 210.482H1024.7V225.552H1009.79V210.482Z" fill="#181425"/>
<path d="M994.876 210.482H1009.79V225.552H994.876V210.482Z" fill="#181425"/>
<path d="M979.962 210.482H994.875V225.552H979.962V210.482Z" fill="#181425"/>
<path d="M965.047 210.482H979.961V225.552H965.047V210.482Z" fill="#E45C00"/>
<path d="M950.135 210.482H965.049V225.552H950.135V210.482Z" fill="#FF7C06"/>
<path d="M935.221 210.482H950.135V225.552H935.221V210.482Z" fill="#FF7C06"/>
<path d="M920.307 210.482H935.221V225.552H920.307V210.482Z" fill="#FF7C06"/>
<path d="M905.395 210.482H920.309V225.552H905.395V210.482Z" fill="#FF7C06"/>
<path d="M890.481 210.482H905.395V225.552H890.481V210.482Z" fill="#181425"/>
<path d="M875.807 210.482H890.721V225.552H875.807V210.482Z" fill="#181425"/>
<path d="M860.895 210.482H875.809V225.552H860.895V210.482Z" fill="#181425"/>
<path d="M845.981 210.482H860.895V225.552H845.981V210.482Z" fill="#FF7C06"/>
<path d="M831.067 210.482H845.98V225.552H831.067V210.482Z" fill="#FF7C06"/>
<path d="M816.155 210.482H831.068V225.552H816.155V210.482Z" fill="#181425"/>
<path d="M801.241 210.482H816.154V225.552H801.241V210.482Z" fill="#FF7C06"/>
<path d="M786.327 210.482H801.24V225.552H786.327V210.482Z" fill="#181425"/>
<path d="M771.413 210.482H786.326V225.552H771.413V210.482Z" fill="#262B44"/>
<path d="M756.501 210.482H771.414V225.552H756.501V210.482Z" fill="#181425"/>
<path d="M1084.12 225.552H1099.03V240.621H1084.12V225.552Z" fill="#181425"/>
<path d="M1069.2 225.552H1084.12V240.621H1069.2V225.552Z" fill="#262B44"/>
<path d="M1054.29 225.552H1069.2V240.621H1054.29V225.552Z" fill="#181425"/>
<path d="M1039.38 225.552H1054.29V240.621H1039.38V225.552Z" fill="#181425"/>
<path d="M1024.46 225.552H1039.38V240.621H1024.46V225.552Z" fill="#181425"/>
<path d="M1009.79 225.552H1024.7V240.621H1009.79V225.552Z" fill="#181425"/>
<path d="M994.876 225.552H1009.79V240.621H994.876V225.552Z" fill="white"/>
<path d="M979.962 225.552H994.875V240.621H979.962V225.552Z" fill="white"/>
<path d="M965.047 225.552H979.961V240.621H965.047V225.552Z" fill="#181425"/>
<path d="M950.135 225.552H965.049V240.621H950.135V225.552Z" fill="#E45C00"/>
<path d="M935.221 225.552H950.135V240.621H935.221V225.552Z" fill="#FF7C06"/>
<path d="M920.307 225.552H935.221V240.621H920.307V225.552Z" fill="#FF7C06"/>
<path d="M905.395 225.552H920.309V240.621H905.395V225.552Z" fill="#FF7C06"/>
<path d="M890.481 225.552H905.395V240.621H890.481V225.552Z" fill="#FF7C06"/>
<path d="M875.807 225.552H890.721V240.621H875.807V225.552Z" fill="#FF7C06"/>
<path d="M860.895 225.552H875.809V240.621H860.895V225.552Z" fill="#FF7C06"/>
<path d="M845.981 225.552H860.895V240.621H845.981V225.552Z" fill="#FF7C06"/>
<path d="M831.067 225.552H845.98V240.621H831.067V225.552Z" fill="#181425"/>
<path d="M816.155 225.552H831.068V240.621H816.155V225.552Z" fill="white"/>
<path d="M801.241 225.552H816.154V240.621H801.241V225.552Z" fill="#181425"/>
<path d="M786.327 225.552H801.24V240.621H786.327V225.552Z" fill="#181425"/>
<path d="M771.413 225.552H786.326V240.621H771.413V225.552Z" fill="#262B44"/>
<path d="M756.501 225.552H771.414V240.621H756.501V225.552Z" fill="#181425"/>
<path d="M741.587 225.552H756.5V240.621H741.587V225.552Z" fill="#181425"/>
<path d="M726.913 225.552H741.826V240.621H726.913V225.552Z" fill="#181425"/>
<path d="M1069.2 240.62H1084.12V255.689H1069.2V240.62Z" fill="#181425"/>
<path d="M1054.29 240.62H1069.2V255.689H1054.29V240.62Z" fill="#C6C6C6"/>
<path d="M1039.38 240.62H1054.29V255.689H1039.38V240.62Z" fill="white"/>
<path d="M1024.46 240.62H1039.38V255.689H1024.46V240.62Z" fill="white"/>
<path d="M1009.79 240.62H1024.7V255.689H1009.79V240.62Z" fill="#181425"/>
<path d="M994.876 240.62H1009.79V255.689H994.876V240.62Z" fill="#181425"/>
<path d="M979.962 240.62H994.875V255.689H979.962V240.62Z" fill="#C6C6C6"/>
<path d="M965.047 240.62H979.961V255.689H965.047V240.62Z" fill="white"/>
<path d="M950.135 240.62H965.049V255.689H950.135V240.62Z" fill="#181425"/>
<path d="M935.221 240.62H950.135V255.689H935.221V240.62Z" fill="#E45C00"/>
<path d="M920.307 240.62H935.221V255.689H920.307V240.62Z" fill="#E45C00"/>
<path d="M905.395 240.62H920.309V255.689H905.395V240.62Z" fill="#FF7C06"/>
<path d="M890.481 240.62H905.395V255.689H890.481V240.62Z" fill="#FF7C06"/>
<path d="M875.807 240.62H890.721V255.689H875.807V240.62Z" fill="#FF7C06"/>
<path d="M860.895 240.62H875.809V255.689H860.895V240.62Z" fill="#FF7C06"/>
<path d="M845.981 240.62H860.895V255.689H845.981V240.62Z" fill="#181425"/>
<path d="M831.067 240.62H845.98V255.689H831.067V240.62Z" fill="white"/>
<path d="M816.155 240.62H831.068V255.689H816.155V240.62Z" fill="white"/>
<path d="M801.241 240.62H816.154V255.689H801.241V240.62Z" fill="#181425"/>
<path d="M771.413 240.62H786.326V255.689H771.413V240.62Z" fill="#181425"/>
<path d="M756.501 240.62H771.414V255.689H756.501V240.62Z" fill="#C6C6C6"/>
<path d="M741.587 240.62H756.5V255.689H741.587V240.62Z" fill="white"/>
<path d="M726.913 240.62H741.826V255.689H726.913V240.62Z" fill="white"/>
<path d="M712.001 240.62H726.914V255.689H712.001V240.62Z" fill="#181425"/>
<path d="M1069.2 255.689H1084.12V270.759H1069.2V255.689Z" fill="#181425"/>
<path d="M1054.29 255.689H1069.2V270.759H1054.29V255.689Z" fill="#C6C6C6"/>
<path d="M1039.38 255.689H1054.29V270.759H1039.38V255.689Z" fill="white"/>
<path d="M1024.46 255.689H1039.38V270.759H1024.46V255.689Z" fill="white"/>
<path d="M1009.79 255.689H1024.7V270.759H1009.79V255.689Z" fill="#181425"/>
<path d="M994.876 255.689H1009.79V270.759H994.876V255.689Z" fill="#C6C6C6"/>
<path d="M979.962 255.689H994.875V270.759H979.962V255.689Z" fill="#181425"/>
<path d="M965.047 255.689H979.961V270.759H965.047V255.689Z" fill="white"/>
<path d="M950.135 255.689H965.049V270.759H950.135V255.689Z" fill="#181425"/>
<path d="M935.221 255.689H950.135V270.759H935.221V255.689Z" fill="#181425"/>
<path d="M920.307 255.689H935.221V270.759H920.307V255.689Z" fill="#181425"/>
<path d="M905.395 255.689H920.309V270.759H905.395V255.689Z" fill="#181425"/>
<path d="M890.481 255.689H905.395V270.759H890.481V255.689Z" fill="#181425"/>
<path d="M875.807 255.689H890.721V270.759H875.807V255.689Z" fill="#181425"/>
<path d="M860.895 255.689H875.809V270.759H860.895V255.689Z" fill="#181425"/>
<path d="M845.981 255.689H860.895V270.759H845.981V255.689Z" fill="white"/>
<path d="M831.067 255.689H845.98V270.759H831.067V255.689Z" fill="white"/>
<path d="M816.155 255.689H831.068V270.759H816.155V255.689Z" fill="#181425"/>
<path d="M771.413 255.689H786.326V270.759H771.413V255.689Z" fill="#181425"/>
<path d="M756.501 255.689H771.414V270.759H756.501V255.689Z" fill="#C6C6C6"/>
<path d="M741.587 255.689H756.5V270.759H741.587V255.689Z" fill="white"/>
<path d="M726.913 255.689H741.826V270.759H726.913V255.689Z" fill="white"/>
<path d="M712.001 255.689H726.914V270.759H712.001V255.689Z" fill="#181425"/>
<path d="M1069.2 270.759H1084.12V285.828H1069.2V270.759Z" fill="#181425"/>
<path d="M1054.29 270.759H1069.2V285.828H1054.29V270.759Z" fill="#C6C6C6"/>
<path d="M1039.38 270.759H1054.29V285.828H1039.38V270.759Z" fill="white"/>
<path d="M1024.46 270.759H1039.38V285.828H1024.46V270.759Z" fill="white"/>
<path d="M1009.79 270.759H1024.7V285.828H1009.79V270.759Z" fill="#181425"/>
<path d="M994.876 270.759H1009.79V285.828H994.876V270.759Z" fill="#181425"/>
<path d="M979.962 270.759H994.875V285.828H979.962V270.759Z" fill="#181425"/>
<path d="M965.047 270.759H979.961V285.828H965.047V270.759Z" fill="#181425"/>
<path d="M950.135 270.759H965.049V285.828H950.135V270.759Z" fill="#181425"/>
<path d="M935.221 270.759H950.135V285.828H935.221V270.759Z" fill="#E45C00"/>
<path d="M920.307 270.759H935.221V285.828H920.307V270.759Z" fill="#E45C00"/>
<path d="M905.395 270.759H920.309V285.828H905.395V270.759Z" fill="#E45C00"/>
<path d="M890.481 270.759H905.395V285.828H890.481V270.759Z" fill="#FF7C06"/>
<path d="M875.807 270.759H890.721V285.828H875.807V270.759Z" fill="#FF7C06"/>
<path d="M860.895 270.759H875.809V285.828H860.895V270.759Z" fill="#181425"/>
<path d="M845.981 270.759H860.895V285.828H845.981V270.759Z" fill="#181425"/>
<path d="M831.067 270.759H845.98V285.828H831.067V270.759Z" fill="#181425"/>
<path d="M771.413 270.759H786.326V285.828H771.413V270.759Z" fill="#181425"/>
<path d="M756.501 270.759H771.414V285.828H756.501V270.759Z" fill="#C6C6C6"/>
<path d="M741.587 270.759H756.5V285.828H741.587V270.759Z" fill="white"/>
<path d="M726.913 270.759H741.826V285.828H726.913V270.759Z" fill="white"/>
<path d="M712.001 270.759H726.914V285.828H712.001V270.759Z" fill="#181425"/>
<path d="M1054.29 285.828H1069.2V300.897H1054.29V285.828Z" fill="#181425"/>
<path d="M1039.38 285.828H1054.29V300.897H1039.38V285.828Z" fill="#181425"/>
<path d="M1024.46 285.828H1039.38V300.897H1024.46V285.828Z" fill="#181425"/>
<path d="M994.876 285.828H1009.79V300.897H994.876V285.828Z" fill="#181425"/>
<path d="M979.962 285.828H994.875V300.897H979.962V285.828Z" fill="#262B44"/>
<path d="M965.047 285.828H979.961V300.897H965.047V285.828Z" fill="#181425"/>
<path d="M950.135 285.828H965.049V300.897H950.135V285.828Z" fill="#181425"/>
<path d="M935.221 285.828H950.135V300.897H935.221V285.828Z" fill="#181425"/>
<path d="M920.307 285.828H935.221V300.897H920.307V285.828Z" fill="#181425"/>
<path d="M905.395 285.828H920.309V300.897H905.395V285.828Z" fill="#181425"/>
<path d="M890.481 285.828H905.395V300.897H890.481V285.828Z" fill="#181425"/>
<path d="M875.807 285.828H890.721V300.897H875.807V285.828Z" fill="#181425"/>
<path d="M860.895 285.828H875.809V300.897H860.895V285.828Z" fill="#181425"/>
<path d="M845.981 285.828H860.895V300.897H845.981V285.828Z" fill="#262B44"/>
<path d="M831.067 285.828H845.98V300.897H831.067V285.828Z" fill="#181425"/>
<path d="M756.501 285.828H771.414V300.897H756.501V285.828Z" fill="#181425"/>
<path d="M741.587 285.828H756.5V300.897H741.587V285.828Z" fill="#181425"/>
<path d="M726.913 285.828H741.826V300.897H726.913V285.828Z" fill="#181425"/>
<path d="M994.876 300.897H1009.79V315.967H994.876V300.897Z" fill="#181425"/>
<path d="M979.962 300.897H994.875V315.967H979.962V300.897Z" fill="#262B44"/>
<path d="M965.047 300.897H979.961V315.967H965.047V300.897Z" fill="#181425"/>
<path d="M860.895 300.897H875.809V315.967H860.895V300.897Z" fill="#181425"/>
<path d="M845.981 300.897H860.895V315.967H845.981V300.897Z" fill="#262B44"/>
<path d="M831.067 300.897H845.98V315.967H831.067V300.897Z" fill="#262B44"/>
<path d="M816.155 300.897H831.068V315.967H816.155V300.897Z" fill="#181425"/>
<path d="M1009.79 315.967H1024.7V331.036H1009.79V315.967Z" fill="#181425"/>
<path d="M994.876 315.967H1009.79V331.036H994.876V315.967Z" fill="#181425"/>
<path d="M979.962 315.967H994.875V331.036H979.962V315.967Z" fill="#181425"/>
<path d="M965.047 315.967H979.961V331.036H965.047V315.967Z" fill="#181425"/>
<path d="M845.981 315.967H860.895V331.036H845.981V315.967Z" fill="#181425"/>
<path d="M831.067 315.967H845.98V331.036H831.067V315.967Z" fill="#181425"/>
<path d="M816.155 315.967H831.068V331.036H816.155V315.967Z" fill="#181425"/>
<path d="M801.241 315.967H816.154V331.036H801.241V315.967Z" fill="#181425"/>
<path d="M1024.46 331.035H1039.38V346.104H1024.46V331.035Z" fill="#181425"/>
<path d="M1009.79 331.035H1024.7V346.104H1009.79V331.035Z" fill="#FF7C06"/>
<path d="M994.876 331.035H1009.79V346.104H994.876V331.035Z" fill="white"/>
<path d="M979.962 331.035H994.875V346.104H979.962V331.035Z" fill="white"/>
<path d="M965.047 331.035H979.961V346.104H965.047V331.035Z" fill="#FF7C06"/>
<path d="M950.135 331.035H965.049V346.104H950.135V331.035Z" fill="#181425"/>
<path d="M860.895 331.035H875.809V346.104H860.895V331.035Z" fill="#181425"/>
<path d="M845.981 331.035H860.895V346.104H845.981V331.035Z" fill="#FF7C06"/>
<path d="M831.067 331.035H845.98V346.104H831.067V331.035Z" fill="#FF7C06"/>
<path d="M816.155 331.035H831.068V346.104H816.155V331.035Z" fill="white"/>
<path d="M801.241 331.035H816.154V346.104H801.241V331.035Z" fill="white"/>
<path d="M786.327 331.035H801.24V346.104H786.327V331.035Z" fill="#181425"/>
<path d="M1024.46 346.104H1039.38V361.174H1024.46V346.104Z" fill="#181425"/>
<path d="M1009.79 346.104H1024.7V361.174H1009.79V346.104Z" fill="#E45C00"/>
<path d="M994.876 346.104H1009.79V361.174H994.876V346.104Z" fill="#E45C00"/>
<path d="M979.962 346.104H994.875V361.174H979.962V346.104Z" fill="#E45C00"/>
<path d="M965.047 346.104H979.961V361.174H965.047V346.104Z" fill="#E45C00"/>
<path d="M950.135 346.104H965.049V361.174H950.135V346.104Z" fill="#181425"/>
<path d="M860.895 346.104H875.809V361.174H860.895V346.104Z" fill="#181425"/>
<path d="M845.981 346.104H860.895V361.174H845.981V346.104Z" fill="#E45C00"/>
<path d="M831.067 346.104H845.98V361.174H831.067V346.104Z" fill="#E45C00"/>
<path d="M816.155 346.104H831.068V361.174H816.155V346.104Z" fill="#E45C00"/>
<path d="M801.241 346.104H816.154V361.174H801.241V346.104Z" fill="#E45C00"/>
<path d="M786.327 346.104H801.24V361.174H786.327V346.104Z" fill="#E45C00"/>
<path d="M771.413 346.104H786.326V361.174H771.413V346.104Z" fill="#181425"/>
<path d="M1024.46 360.931H1039.38V376H1024.46V360.931Z" fill="#181425"/>
<path d="M1009.79 360.931H1024.7V376H1009.79V360.931Z" fill="#181425"/>
<path d="M994.876 360.931H1009.79V376H994.876V360.931Z" fill="#181425"/>
<path d="M979.962 360.931H994.875V376H979.962V360.931Z" fill="#181425"/>
<path d="M965.047 360.931H979.961V376H965.047V360.931Z" fill="#181425"/>
<path d="M950.135 360.931H965.049V376H950.135V360.931Z" fill="#181425"/>
<path d="M860.895 360.931H875.809V376H860.895V360.931Z" fill="#181425"/>
<path d="M845.981 360.931H860.895V376H845.981V360.931Z" fill="#181425"/>
<path d="M831.067 360.931H845.98V376H831.067V360.931Z" fill="#181425"/>
<path d="M816.155 360.931H831.068V376H816.155V360.931Z" fill="#181425"/>
<path d="M801.241 360.931H816.154V376H801.241V360.931Z" fill="#181425"/>
<path d="M786.327 360.931H801.24V376H786.327V360.931Z" fill="#181425"/>
<path d="M771.413 360.931H786.326V376H771.413V360.931Z" fill="#181425"/>
</g>
<g clip-path="url(#clip1_172_2427)" filter="url(#filter1_d_172_2427)">
<path d="M123.068 0H108.154V15.0692H123.068V0Z" fill="#181425"/>
<path d="M137.982 0H123.068V15.0692H137.982V0Z" fill="#181425"/>
<path d="M152.894 0H137.98V15.0692H152.894V0Z" fill="#181425"/>
<path d="M167.808 0H152.895V15.0692H167.808V0Z" fill="#181425"/>
<path d="M182.722 0H167.809V15.0692H182.722V0Z" fill="#181425"/>
<path d="M197.634 0H182.721V15.0692H197.634V0Z" fill="#181425"/>
<path d="M212.548 0H197.635V15.0692H212.548V0Z" fill="#181425"/>
<path d="M227.222 0H212.309V15.0692H227.222V0Z" fill="#181425"/>
<path d="M242.134 0H227.221V15.0692H242.134V0Z" fill="#181425"/>
<path d="M93.2397 15.0693H78.3262V30.1385H93.2397V15.0693Z" fill="#181425"/>
<path d="M108.154 15.0693H93.2402V30.1385H108.154V15.0693Z" fill="#181425"/>
<path d="M123.068 15.0693H108.154V30.1385H123.068V15.0693Z" fill="#E45C00"/>
<path d="M137.982 15.0693H123.068V30.1385H137.982V15.0693Z" fill="#181425"/>
<path d="M152.894 15.0693H137.98V30.1385H152.894V15.0693Z" fill="#181425"/>
<path d="M167.808 15.0693H152.895V30.1385H167.808V15.0693Z" fill="#E45C00"/>
<path d="M182.722 15.0693H167.809V30.1385H182.722V15.0693Z" fill="#E45C00"/>
<path d="M197.634 15.0693H182.721V30.1385H197.634V15.0693Z" fill="#E45C00"/>
<path d="M212.548 15.0693H197.635V30.1385H212.548V15.0693Z" fill="#FF7C06"/>
<path d="M227.222 15.0693H212.309V30.1385H227.222V15.0693Z" fill="#FF7C06"/>
<path d="M242.134 15.0693H227.221V30.1385H242.134V15.0693Z" fill="#181425"/>
<path d="M257.048 15.0693H242.135V30.1385H257.048V15.0693Z" fill="#181425"/>
<path d="M271.962 15.0693H257.049V30.1385H271.962V15.0693Z" fill="#181425"/>
<path d="M78.5678 30.1387H63.6543V45.2078H78.5678V30.1387Z" fill="#181425"/>
<path d="M93.2397 30.1387H78.3262V45.2078H93.2397V30.1387Z" fill="white"/>
<path d="M108.154 30.1387H93.2402V45.2078H108.154V30.1387Z" fill="white"/>
<path d="M123.068 30.1387H108.154V45.2078H123.068V30.1387Z" fill="#181425"/>
<path d="M137.982 30.1387H123.068V45.2078H137.982V30.1387Z" fill="white"/>
<path d="M152.894 30.1387H137.98V45.2078H152.894V30.1387Z" fill="#181425"/>
<path d="M167.808 30.1387H152.895V45.2078H167.808V30.1387Z" fill="#181425"/>
<path d="M182.722 30.1387H167.809V45.2078H182.722V30.1387Z" fill="#181425"/>
<path d="M197.634 30.1387H182.721V45.2078H197.634V30.1387Z" fill="#181425"/>
<path d="M212.548 30.1387H197.635V45.2078H212.548V30.1387Z" fill="#181425"/>
<path d="M227.222 30.1387H212.309V45.2078H227.222V30.1387Z" fill="#181425"/>
<path d="M242.134 30.1387H227.221V45.2078H242.134V30.1387Z" fill="#181425"/>
<path d="M257.048 30.1387H242.135V45.2078H257.048V30.1387Z" fill="white"/>
<path d="M271.962 30.1387H257.049V45.2078H271.962V30.1387Z" fill="white"/>
<path d="M286.874 30.1387H271.961V45.2078H286.874V30.1387Z" fill="#181425"/>
<path d="M63.6537 45.207H48.7402V60.2762H63.6537V45.207Z" fill="#181425"/>
<path d="M78.5678 45.207H63.6543V60.2762H78.5678V45.207Z" fill="white"/>
<path d="M93.2397 45.207H78.3262V60.2762H93.2397V45.207Z" fill="white"/>
<path d="M108.154 45.207H93.2402V60.2762H108.154V45.207Z" fill="#181425"/>
<path d="M123.068 45.207H108.154V60.2762H123.068V45.207Z" fill="white"/>
<path d="M137.982 45.207H123.068V60.2762H137.982V45.207Z" fill="#C6C6C6"/>
<path d="M152.894 45.207H137.98V60.2762H152.894V45.207Z" fill="#181425"/>
<path d="M167.808 45.207H152.895V60.2762H167.808V45.207Z" fill="#E45C00"/>
<path d="M182.722 45.207H167.809V60.2762H182.722V45.207Z" fill="#E45C00"/>
<path d="M197.634 45.207H182.721V60.2762H197.634V45.207Z" fill="#FF7C06"/>
<path d="M212.548 45.207H197.635V60.2762H212.548V45.207Z" fill="#FF7C06"/>
<path d="M227.222 45.207H212.309V60.2762H227.222V45.207Z" fill="#FF7C06"/>
<path d="M242.134 45.207H227.221V60.2762H242.134V45.207Z" fill="#FF7C06"/>
<path d="M257.048 45.207H242.135V60.2762H257.048V45.207Z" fill="#181425"/>
<path d="M271.962 45.207H257.049V60.2762H271.962V45.207Z" fill="#C6C6C6"/>
<path d="M286.874 45.207H271.961V60.2762H286.874V45.207Z" fill="white"/>
<path d="M301.788 45.207H286.875V60.2762H301.788V45.207Z" fill="#181425"/>
<path d="M48.7397 60.2764H33.8262V75.3455H48.7397V60.2764Z" fill="#181425"/>
<path d="M63.6537 60.2764H48.7402V75.3455H63.6537V60.2764Z" fill="#181425"/>
<path d="M78.5678 60.2764H63.6543V75.3455H78.5678V60.2764Z" fill="#181425"/>
<path d="M93.2397 60.2764H78.3262V75.3455H93.2397V60.2764Z" fill="#181425"/>
<path d="M108.154 60.2764H93.2402V75.3455H108.154V60.2764Z" fill="white"/>
<path d="M123.068 60.2764H108.154V75.3455H123.068V60.2764Z" fill="#C6C6C6"/>
<path d="M137.982 60.2764H123.068V75.3455H137.982V60.2764Z" fill="#181425"/>
<path d="M152.894 60.2764H137.98V75.3455H152.894V60.2764Z" fill="#E45C00"/>
<path d="M167.808 60.2764H152.895V75.3455H167.808V60.2764Z" fill="#FF7C06"/>
<path d="M182.722 60.2764H167.809V75.3455H182.722V60.2764Z" fill="#FF7C06"/>
<path d="M197.634 60.2764H182.721V75.3455H197.634V60.2764Z" fill="#FF7C06"/>
<path d="M212.548 60.2764H197.635V75.3455H212.548V60.2764Z" fill="#FF7C06"/>
<path d="M227.222 60.2764H212.309V75.3455H227.222V60.2764Z" fill="#FF7C06"/>
<path d="M242.134 60.2764H227.221V75.3455H242.134V60.2764Z" fill="#FF7C06"/>
<path d="M257.048 60.2764H242.135V75.3455H257.048V60.2764Z" fill="#FF7C06"/>
<path d="M271.962 60.2764H257.049V75.3455H271.962V60.2764Z" fill="#181425"/>
<path d="M286.874 60.2764H271.961V75.3455H286.874V60.2764Z" fill="white"/>
<path d="M301.788 60.2764H286.875V75.3455H301.788V60.2764Z" fill="#181425"/>
<path d="M316.703 60.2764H301.789V75.3455H316.703V60.2764Z" fill="#181425"/>
<path d="M48.7397 75.1025H33.8262V90.1717H48.7397V75.1025Z" fill="#181425"/>
<path d="M63.6537 75.1025H48.7402V90.1717H63.6537V75.1025Z" fill="#E45C00"/>
<path d="M78.5678 75.1025H63.6543V90.1717H78.5678V75.1025Z" fill="#E45C00"/>
<path d="M93.2397 75.1025H78.3262V90.1717H93.2397V75.1025Z" fill="#181425"/>
<path d="M108.154 75.1025H93.2402V90.1717H108.154V75.1025Z" fill="#181425"/>
<path d="M123.068 75.1025H108.154V90.1717H123.068V75.1025Z" fill="#181425"/>
<path d="M137.982 75.1025H123.068V90.1717H137.982V75.1025Z" fill="#E45C00"/>
<path d="M152.894 75.1025H137.98V90.1717H152.894V75.1025Z" fill="#FF7C06"/>
<path d="M167.808 75.1025H152.895V90.1717H167.808V75.1025Z" fill="#181425"/>
<path d="M182.722 75.1025H167.809V90.1717H182.722V75.1025Z" fill="#181425"/>
<path d="M197.634 75.1025H182.721V90.1717H197.634V75.1025Z" fill="#FF7C06"/>
<path d="M212.548 75.1025H197.635V90.1717H212.548V75.1025Z" fill="#FF7C06"/>
<path d="M227.222 75.1025H212.309V90.1717H227.222V75.1025Z" fill="#FF7C06"/>
<path d="M242.134 75.1025H227.221V90.1717H242.134V75.1025Z" fill="#FF7C06"/>
<path d="M257.048 75.1025H242.135V90.1717H257.048V75.1025Z" fill="#181425"/>
<path d="M271.962 75.1025H257.049V90.1717H271.962V75.1025Z" fill="#FF7C06"/>
<path d="M286.874 75.1025H271.961V90.1717H286.874V75.1025Z" fill="#181425"/>
<path d="M301.788 75.1025H286.875V90.1717H301.788V75.1025Z" fill="#FF7C06"/>
<path d="M316.703 75.1025H301.789V90.1717H316.703V75.1025Z" fill="#181425"/>
<path d="M33.8276 90.1719H18.9141V105.241H33.8276V90.1719Z" fill="#181425"/>
<path d="M48.7397 90.1719H33.8262V105.241H48.7397V90.1719Z" fill="#E45C00"/>
<path d="M63.6537 90.1719H48.7402V105.241H63.6537V90.1719Z" fill="#E45C00"/>
<path d="M78.5678 90.1719H63.6543V105.241H78.5678V90.1719Z" fill="#181425"/>
<path d="M93.2397 90.1719H78.3262V105.241H93.2397V90.1719Z" fill="#FF7C06"/>
<path d="M108.154 90.1719H93.2402V105.241H108.154V90.1719Z" fill="#181425"/>
<path d="M123.068 90.1719H108.154V105.241H123.068V90.1719Z" fill="#E45C00"/>
<path d="M137.982 90.1719H123.068V105.241H137.982V90.1719Z" fill="#E45C00"/>
<path d="M152.894 90.1719H137.98V105.241H152.894V90.1719Z" fill="#FF7C06"/>
<path d="M167.808 90.1719H152.895V105.241H167.808V90.1719Z" fill="#FF7C06"/>
<path d="M182.722 90.1719H167.809V105.241H182.722V90.1719Z" fill="#FF7C06"/>
<path d="M197.634 90.1719H182.721V105.241H197.634V90.1719Z" fill="#FF7C06"/>
<path d="M212.548 90.1719H197.635V105.241H212.548V90.1719Z" fill="#FF7C06"/>
<path d="M227.222 90.1719H212.309V105.241H227.222V90.1719Z" fill="#FF7C06"/>
<path d="M242.134 90.1719H227.221V105.241H242.134V90.1719Z" fill="#FF7C06"/>
<path d="M257.048 90.1719H242.135V105.241H257.048V90.1719Z" fill="#FF7C06"/>
<path d="M271.962 90.1719H257.049V105.241H271.962V90.1719Z" fill="#FF7C06"/>
<path d="M286.874 90.1719H271.961V105.241H286.874V90.1719Z" fill="#FF7C06"/>
<path d="M301.788 90.1719H286.875V105.241H301.788V90.1719Z" fill="#181425"/>
<path d="M316.703 90.1719H301.789V105.241H316.703V90.1719Z" fill="#FF7C06"/>
<path d="M331.617 90.1719H316.703V105.241H331.617V90.1719Z" fill="#181425"/>
<path d="M33.8276 105.241H18.9141V120.31H33.8276V105.241Z" fill="#181425"/>
<path d="M48.7397 105.241H33.8262V120.31H48.7397V105.241Z" fill="#181425"/>
<path d="M63.6537 105.241H48.7402V120.31H63.6537V105.241Z" fill="#181425"/>
<path d="M78.5678 105.241H63.6543V120.31H78.5678V105.241Z" fill="#181425"/>
<path d="M93.2397 105.241H78.3262V120.31H93.2397V105.241Z" fill="#FF7C06"/>
<path d="M108.154 105.241H93.2402V120.31H108.154V105.241Z" fill="#181425"/>
<path d="M123.068 105.241H108.154V120.31H123.068V105.241Z" fill="#E45C00"/>
<path d="M137.982 105.241H123.068V120.31H137.982V105.241Z" fill="#181425"/>
<path d="M152.894 105.241H137.98V120.31H152.894V105.241Z" fill="#181425"/>
<path d="M167.808 105.241H152.895V120.31H167.808V105.241Z" fill="#181425"/>
<path d="M182.722 105.241H167.809V120.31H182.722V105.241Z" fill="#181425"/>
<path d="M197.634 105.241H182.721V120.31H197.634V105.241Z" fill="#FF7C06"/>
<path d="M212.548 105.241H197.635V120.31H212.548V105.241Z" fill="#FF7C06"/>
<path d="M227.222 105.241H212.309V120.31H227.222V105.241Z" fill="#FF7C06"/>
<path d="M242.134 105.241H227.221V120.31H242.134V105.241Z" fill="#FF7C06"/>
<path d="M257.048 105.241H242.135V120.31H257.048V105.241Z" fill="#FF7C06"/>
<path d="M271.962 105.241H257.049V120.31H271.962V105.241Z" fill="#181425"/>
<path d="M286.874 105.241H271.961V120.31H286.874V105.241Z" fill="#181425"/>
<path d="M301.788 105.241H286.875V120.31H301.788V105.241Z" fill="#181425"/>
<path d="M316.703 105.241H301.789V120.31H316.703V105.241Z" fill="#FF7C06"/>
<path d="M331.617 105.241H316.703V120.31H331.617V105.241Z" fill="#181425"/>
<path d="M18.9135 120.311H4V135.38H18.9135V120.311Z" fill="#181425"/>
<path d="M33.8276 120.311H18.9141V135.38H33.8276V120.311Z" fill="#C6C6C6"/>
<path d="M48.7397 120.311H33.8262V135.38H48.7397V120.311Z" fill="white"/>
<path d="M63.6537 120.311H48.7402V135.38H63.6537V120.311Z" fill="#181425"/>
<path d="M78.5678 120.311H63.6543V135.38H78.5678V120.311Z" fill="white"/>
<path d="M93.2397 120.311H78.3262V135.38H93.2397V120.311Z" fill="#181425"/>
<path d="M108.154 120.311H93.2402V135.38H108.154V120.311Z" fill="#181425"/>
<path d="M123.068 120.311H108.154V135.38H123.068V120.311Z" fill="#181425"/>
<path d="M137.982 120.311H123.068V135.38H137.982V120.311Z" fill="#181425"/>
<path d="M152.894 120.311H137.98V135.38H152.894V120.311Z" fill="#181425"/>
<path d="M167.808 120.311H152.895V135.38H167.808V120.311Z" fill="#181425"/>
<path d="M182.722 120.311H167.809V135.38H182.722V120.311Z" fill="#181425"/>
<path d="M197.634 120.311H182.721V135.38H197.634V120.311Z" fill="#181425"/>
<path d="M212.548 120.311H197.635V135.38H212.548V120.311Z" fill="#FF7C06"/>
<path d="M227.222 120.311H212.309V135.38H227.222V120.311Z" fill="#FF7C06"/>
<path d="M242.134 120.311H227.221V135.38H242.134V120.311Z" fill="#FF7C06"/>
<path d="M257.048 120.311H242.135V135.38H257.048V120.311Z" fill="#181425"/>
<path d="M271.962 120.311H257.049V135.38H271.962V120.311Z" fill="#181425"/>
<path d="M286.874 120.311H271.961V135.38H286.874V120.311Z" fill="#181425"/>
<path d="M301.788 120.311H286.875V135.38H301.788V120.311Z" fill="#181425"/>
<path d="M316.703 120.311H301.789V135.38H316.703V120.311Z" fill="#181425"/>
<path d="M331.617 120.311H316.703V135.38H331.617V120.311Z" fill="white"/>
<path d="M346.529 120.311H331.615V135.38H346.529V120.311Z" fill="#181425"/>
<path d="M18.9135 135.38H4V150.449H18.9135V135.38Z" fill="#181425"/>
<path d="M33.8276 135.38H18.9141V150.449H33.8276V135.38Z" fill="#C6C6C6"/>
<path d="M48.7397 135.38H33.8262V150.449H48.7397V135.38Z" fill="white"/>
<path d="M63.6537 135.38H48.7402V150.449H63.6537V135.38Z" fill="#181425"/>
<path d="M78.5678 135.38H63.6543V150.449H78.5678V135.38Z" fill="white"/>
<path d="M93.2397 135.38H78.3262V150.449H93.2397V135.38Z" fill="#181425"/>
<path d="M108.154 135.38H93.2402V150.449H108.154V135.38Z" fill="#181425"/>
<path d="M123.068 135.38H108.154V150.449H123.068V135.38Z" fill="#181425"/>
<path d="M137.982 135.38H123.068V150.449H137.982V135.38Z" fill="#181425"/>
<path d="M152.894 135.38H137.98V150.449H152.894V135.38Z" fill="white"/>
<path d="M167.808 135.38H152.895V150.449H167.808V135.38Z" fill="#3978A8"/>
<path d="M182.722 135.38H167.809V150.449H182.722V135.38Z" fill="#3978A8"/>
<path d="M197.634 135.38H182.721V150.449H197.634V135.38Z" fill="#181425"/>
<path d="M212.548 135.38H197.635V150.449H212.548V135.38Z" fill="#181425"/>
<path d="M227.222 135.38H212.309V150.449H227.222V135.38Z" fill="#181425"/>
<path d="M242.134 135.38H227.221V150.449H242.134V135.38Z" fill="#181425"/>
<path d="M257.048 135.38H242.135V150.449H257.048V135.38Z" fill="#181425"/>
<path d="M271.962 135.38H257.049V150.449H271.962V135.38Z" fill="#181425"/>
<path d="M286.874 135.38H271.961V150.449H286.874V135.38Z" fill="#3978A8"/>
<path d="M301.788 135.38H286.875V150.449H301.788V135.38Z" fill="#3978A8"/>
<path d="M316.703 135.38H301.789V150.449H316.703V135.38Z" fill="#181425"/>
<path d="M331.617 135.38H316.703V150.449H331.617V135.38Z" fill="white"/>
<path d="M346.529 135.38H331.615V150.449H346.529V135.38Z" fill="#181425"/>
<path d="M18.9135 150.448H4V165.517H18.9135V150.448Z" fill="#181425"/>
<path d="M33.8276 150.448H18.9141V165.517H33.8276V150.448Z" fill="#C6C6C6"/>
<path d="M48.7397 150.448H33.8262V165.517H48.7397V150.448Z" fill="white"/>
<path d="M63.6537 150.448H48.7402V165.517H63.6537V150.448Z" fill="#181425"/>
<path d="M78.5678 150.448H63.6543V165.517H78.5678V150.448Z" fill="white"/>
<path d="M93.2397 150.448H78.3262V165.517H93.2397V150.448Z" fill="#181425"/>
<path d="M108.154 150.448H93.2402V165.517H108.154V150.448Z" fill="#E45C00"/>
<path d="M123.068 150.448H108.154V165.517H123.068V150.448Z" fill="#181425"/>
<path d="M137.982 150.448H123.068V165.517H137.982V150.448Z" fill="white"/>
<path d="M152.894 150.448H137.98V165.517H152.894V150.448Z" fill="white"/>
<path d="M167.808 150.448H152.895V165.517H167.808V150.448Z" fill="#3978A8"/>
<path d="M182.722 150.448H167.809V165.517H182.722V150.448Z" fill="#394778"/>
<path d="M197.634 150.448H182.721V165.517H197.634V150.448Z" fill="white"/>
<path d="M212.548 150.448H197.635V165.517H212.548V150.448Z" fill="#181425"/>
<path d="M227.222 150.448H212.309V165.517H227.222V150.448Z" fill="#181425"/>
<path d="M242.134 150.448H227.221V165.517H242.134V150.448Z" fill="#181425"/>
<path d="M257.048 150.448H242.135V165.517H257.048V150.448Z" fill="#181425"/>
<path d="M271.962 150.448H257.049V165.517H271.962V150.448Z" fill="white"/>
<path d="M286.874 150.448H271.961V165.517H286.874V150.448Z" fill="#394778"/>
<path d="M301.788 150.448H286.875V165.517H301.788V150.448Z" fill="#3978A8"/>
<path d="M316.703 150.448H301.789V165.517H316.703V150.448Z" fill="#181425"/>
<path d="M331.617 150.448H316.703V165.517H331.617V150.448Z" fill="white"/>
<path d="M346.529 150.448H331.615V165.517H346.529V150.448Z" fill="#181425"/>
<path d="M18.9135 165.518H4V180.587H18.9135V165.518Z" fill="#181425"/>
<path d="M33.8276 165.518H18.9141V180.587H33.8276V165.518Z" fill="#C6C6C6"/>
<path d="M48.7397 165.518H33.8262V180.587H48.7397V165.518Z" fill="white"/>
<path d="M63.6537 165.518H48.7402V180.587H63.6537V165.518Z" fill="#181425"/>
<path d="M78.5678 165.518H63.6543V180.587H78.5678V165.518Z" fill="white"/>
<path d="M93.2397 165.518H78.3262V180.587H93.2397V165.518Z" fill="#181425"/>
<path d="M108.154 165.518H93.2402V180.587H108.154V165.518Z" fill="#E45C00"/>
<path d="M123.068 165.518H108.154V180.587H123.068V165.518Z" fill="#181425"/>
<path d="M137.982 165.518H123.068V180.587H137.982V165.518Z" fill="#181425"/>
<path d="M152.894 165.518H137.98V180.587H152.894V165.518Z" fill="white"/>
<path d="M167.808 165.518H152.895V180.587H167.808V165.518Z" fill="white"/>
<path d="M182.722 165.518H167.809V180.587H182.722V165.518Z" fill="#394778"/>
<path d="M197.634 165.518H182.721V180.587H197.634V165.518Z" fill="#181425"/>
<path d="M212.548 165.518H197.635V180.587H212.548V165.518Z" fill="#181425"/>
<path d="M227.222 165.518H212.309V180.587H227.222V165.518Z" fill="#FF7C06"/>
<path d="M242.134 165.518H227.221V180.587H242.134V165.518Z" fill="#FF7C06"/>
<path d="M257.048 165.518H242.135V180.587H257.048V165.518Z" fill="#181425"/>
<path d="M271.962 165.518H257.049V180.587H271.962V165.518Z" fill="#181425"/>
<path d="M286.874 165.518H271.961V180.587H286.874V165.518Z" fill="#394778"/>
<path d="M301.788 165.518H286.875V180.587H301.788V165.518Z" fill="#181425"/>
<path d="M316.703 165.518H301.789V180.587H316.703V165.518Z" fill="#181425"/>
<path d="M331.617 165.518H316.703V180.587H331.617V165.518Z" fill="white"/>
<path d="M346.529 165.518H331.615V180.587H346.529V165.518Z" fill="#181425"/>
<path d="M33.8276 180.587H18.9141V195.656H33.8276V180.587Z" fill="#181425"/>
<path d="M48.7397 180.587H33.8262V195.656H48.7397V180.587Z" fill="#181425"/>
<path d="M63.6537 180.587H48.7402V195.656H63.6537V180.587Z" fill="#181425"/>
<path d="M78.5678 180.587H63.6543V195.656H78.5678V180.587Z" fill="#181425"/>
<path d="M93.2397 180.587H78.3262V195.656H93.2397V180.587Z" fill="#FF7C06"/>
<path d="M108.154 180.587H93.2402V195.656H108.154V180.587Z" fill="#181425"/>
<path d="M123.068 180.587H108.154V195.656H123.068V180.587Z" fill="#E45C00"/>
<path d="M137.982 180.587H123.068V195.656H137.982V180.587Z" fill="#181425"/>
<path d="M152.894 180.587H137.98V195.656H152.894V180.587Z" fill="#181425"/>
<path d="M167.808 180.587H152.895V195.656H167.808V180.587Z" fill="#181425"/>
<path d="M182.722 180.587H167.809V195.656H182.722V180.587Z" fill="#181425"/>
<path d="M197.634 180.587H182.721V195.656H197.634V180.587Z" fill="#181425"/>
<path d="M212.548 180.587H197.635V195.656H212.548V180.587Z" fill="#FF7C06"/>
<path d="M227.222 180.587H212.309V195.656H227.222V180.587Z" fill="#FF7C06"/>
<path d="M242.134 180.587H227.221V195.656H242.134V180.587Z" fill="#FF7C06"/>
<path d="M257.048 180.587H242.135V195.656H257.048V180.587Z" fill="#FF7C06"/>
<path d="M271.962 180.587H257.049V195.656H271.962V180.587Z" fill="#181425"/>
<path d="M286.874 180.587H271.961V195.656H286.874V180.587Z" fill="#181425"/>
<path d="M301.788 180.587H286.875V195.656H301.788V180.587Z" fill="#181425"/>
<path d="M316.703 180.587H301.789V195.656H316.703V180.587Z" fill="#FF7C06"/>
<path d="M331.617 180.587H316.703V195.656H331.617V180.587Z" fill="#181425"/>
<path d="M33.8276 195.656H18.9141V210.725H33.8276V195.656Z" fill="#181425"/>
<path d="M48.7397 195.656H33.8262V210.725H48.7397V195.656Z" fill="#262B44"/>
<path d="M63.6537 195.656H48.7402V210.725H63.6537V195.656Z" fill="#262B44"/>
<path d="M78.5678 195.656H63.6543V210.725H78.5678V195.656Z" fill="#181425"/>
<path d="M93.2397 195.656H78.3262V210.725H93.2397V195.656Z" fill="#FF7C06"/>
<path d="M108.154 195.656H93.2402V210.725H108.154V195.656Z" fill="#181425"/>
<path d="M123.068 195.656H108.154V210.725H123.068V195.656Z" fill="#E45C00"/>
<path d="M137.982 195.656H123.068V210.725H137.982V195.656Z" fill="#E45C00"/>
<path d="M152.894 195.656H137.98V210.725H152.894V195.656Z" fill="#181425"/>
<path d="M167.808 195.656H152.895V210.725H167.808V195.656Z" fill="#181425"/>
<path d="M182.722 195.656H167.809V210.725H182.722V195.656Z" fill="#181425"/>
<path d="M197.634 195.656H182.721V210.725H197.634V195.656Z" fill="#FF7C06"/>
<path d="M212.548 195.656H197.635V210.725H212.548V195.656Z" fill="#FF7C06"/>
<path d="M227.222 195.656H212.309V210.725H227.222V195.656Z" fill="#FF7C06"/>
<path d="M242.134 195.656H227.221V210.725H242.134V195.656Z" fill="#FF7C06"/>
<path d="M257.048 195.656H242.135V210.725H257.048V195.656Z" fill="#181425"/>
<path d="M271.962 195.656H257.049V210.725H271.962V195.656Z" fill="#FF7C06"/>
<path d="M286.874 195.656H271.961V210.725H286.874V195.656Z" fill="#181425"/>
<path d="M301.788 195.656H286.875V210.725H301.788V195.656Z" fill="#181425"/>
<path d="M316.703 195.656H301.789V210.725H316.703V195.656Z" fill="#FF7C06"/>
<path d="M331.617 195.656H316.703V210.725H331.617V195.656Z" fill="#181425"/>
<path d="M18.9135 210.482H4V225.552H18.9135V210.482Z" fill="#181425"/>
<path d="M33.8276 210.482H18.9141V225.552H33.8276V210.482Z" fill="#262B44"/>
<path d="M48.7397 210.482H33.8262V225.552H48.7397V210.482Z" fill="#262B44"/>
<path d="M63.6537 210.482H48.7402V225.552H63.6537V210.482Z" fill="#181425"/>
<path d="M78.5678 210.482H63.6543V225.552H78.5678V210.482Z" fill="#E45C00"/>
<path d="M93.2397 210.482H78.3262V225.552H93.2397V210.482Z" fill="#181425"/>
<path d="M108.154 210.482H93.2402V225.552H108.154V210.482Z" fill="#181425"/>
<path d="M123.068 210.482H108.154V225.552H123.068V210.482Z" fill="#181425"/>
<path d="M137.982 210.482H123.068V225.552H137.982V210.482Z" fill="#E45C00"/>
<path d="M152.894 210.482H137.98V225.552H152.894V210.482Z" fill="#FF7C06"/>
<path d="M167.808 210.482H152.895V225.552H167.808V210.482Z" fill="#FF7C06"/>
<path d="M182.722 210.482H167.809V225.552H182.722V210.482Z" fill="#FF7C06"/>
<path d="M197.634 210.482H182.721V225.552H197.634V210.482Z" fill="#FF7C06"/>
<path d="M212.548 210.482H197.635V225.552H212.548V210.482Z" fill="#181425"/>
<path d="M227.222 210.482H212.309V225.552H227.222V210.482Z" fill="#181425"/>
<path d="M242.134 210.482H227.221V225.552H242.134V210.482Z" fill="#181425"/>
<path d="M257.048 210.482H242.135V225.552H257.048V210.482Z" fill="#FF7C06"/>
<path d="M271.962 210.482H257.049V225.552H271.962V210.482Z" fill="#FF7C06"/>
<path d="M286.874 210.482H271.961V225.552H286.874V210.482Z" fill="#181425"/>
<path d="M301.788 210.482H286.875V225.552H301.788V210.482Z" fill="#FF7C06"/>
<path d="M316.703 210.482H301.789V225.552H316.703V210.482Z" fill="#181425"/>
<path d="M331.617 210.482H316.703V225.552H331.617V210.482Z" fill="#262B44"/>
<path d="M346.529 210.482H331.615V225.552H346.529V210.482Z" fill="#181425"/>
<path d="M18.9135 225.552H4V240.621H18.9135V225.552Z" fill="#181425"/>
<path d="M33.8276 225.552H18.9141V240.621H33.8276V225.552Z" fill="#262B44"/>
<path d="M48.7397 225.552H33.8262V240.621H48.7397V225.552Z" fill="#181425"/>
<path d="M63.6537 225.552H48.7402V240.621H63.6537V225.552Z" fill="#181425"/>
<path d="M78.5678 225.552H63.6543V240.621H78.5678V225.552Z" fill="#181425"/>
<path d="M93.2397 225.552H78.3262V240.621H93.2397V225.552Z" fill="#181425"/>
<path d="M108.154 225.552H93.2402V240.621H108.154V225.552Z" fill="white"/>
<path d="M123.068 225.552H108.154V240.621H123.068V225.552Z" fill="white"/>
<path d="M137.982 225.552H123.068V240.621H137.982V225.552Z" fill="#181425"/>
<path d="M152.894 225.552H137.98V240.621H152.894V225.552Z" fill="#E45C00"/>
<path d="M167.808 225.552H152.895V240.621H167.808V225.552Z" fill="#FF7C06"/>
<path d="M182.722 225.552H167.809V240.621H182.722V225.552Z" fill="#FF7C06"/>
<path d="M197.634 225.552H182.721V240.621H197.634V225.552Z" fill="#FF7C06"/>
<path d="M212.548 225.552H197.635V240.621H212.548V225.552Z" fill="#FF7C06"/>
<path d="M227.222 225.552H212.309V240.621H227.222V225.552Z" fill="#FF7C06"/>
<path d="M242.134 225.552H227.221V240.621H242.134V225.552Z" fill="#FF7C06"/>
<path d="M257.048 225.552H242.135V240.621H257.048V225.552Z" fill="#FF7C06"/>
<path d="M271.962 225.552H257.049V240.621H271.962V225.552Z" fill="#181425"/>
<path d="M286.874 225.552H271.961V240.621H286.874V225.552Z" fill="white"/>
<path d="M301.788 225.552H286.875V240.621H301.788V225.552Z" fill="#181425"/>
<path d="M316.703 225.552H301.789V240.621H316.703V225.552Z" fill="#181425"/>
<path d="M331.617 225.552H316.703V240.621H331.617V225.552Z" fill="#262B44"/>
<path d="M346.529 225.552H331.615V240.621H346.529V225.552Z" fill="#181425"/>
<path d="M361.443 225.552H346.529V240.621H361.443V225.552Z" fill="#181425"/>
<path d="M376.117 225.552H361.203V240.621H376.117V225.552Z" fill="#181425"/>
<path d="M33.8276 240.62H18.9141V255.689H33.8276V240.62Z" fill="#181425"/>
<path d="M48.7397 240.62H33.8262V255.689H48.7397V240.62Z" fill="#C6C6C6"/>
<path d="M63.6537 240.62H48.7402V255.689H63.6537V240.62Z" fill="white"/>
<path d="M78.5678 240.62H63.6543V255.689H78.5678V240.62Z" fill="white"/>
<path d="M93.2397 240.62H78.3262V255.689H93.2397V240.62Z" fill="#181425"/>
<path d="M108.154 240.62H93.2402V255.689H108.154V240.62Z" fill="#181425"/>
<path d="M123.068 240.62H108.154V255.689H123.068V240.62Z" fill="#C6C6C6"/>
<path d="M137.982 240.62H123.068V255.689H137.982V240.62Z" fill="white"/>
<path d="M152.894 240.62H137.98V255.689H152.894V240.62Z" fill="#181425"/>
<path d="M167.808 240.62H152.895V255.689H167.808V240.62Z" fill="#E45C00"/>
<path d="M182.722 240.62H167.809V255.689H182.722V240.62Z" fill="#E45C00"/>
<path d="M197.634 240.62H182.721V255.689H197.634V240.62Z" fill="#FF7C06"/>
<path d="M212.548 240.62H197.635V255.689H212.548V240.62Z" fill="#FF7C06"/>
<path d="M227.222 240.62H212.309V255.689H227.222V240.62Z" fill="#FF7C06"/>
<path d="M242.134 240.62H227.221V255.689H242.134V240.62Z" fill="#FF7C06"/>
<path d="M257.048 240.62H242.135V255.689H257.048V240.62Z" fill="#181425"/>
<path d="M271.962 240.62H257.049V255.689H271.962V240.62Z" fill="white"/>
<path d="M286.874 240.62H271.961V255.689H286.874V240.62Z" fill="white"/>
<path d="M301.788 240.62H286.875V255.689H301.788V240.62Z" fill="#181425"/>
<path d="M331.617 240.62H316.703V255.689H331.617V240.62Z" fill="#181425"/>
<path d="M346.529 240.62H331.615V255.689H346.529V240.62Z" fill="#C6C6C6"/>
<path d="M361.443 240.62H346.529V255.689H361.443V240.62Z" fill="white"/>
<path d="M376.117 240.62H361.203V255.689H376.117V240.62Z" fill="white"/>
<path d="M391.029 240.62H376.115V255.689H391.029V240.62Z" fill="#181425"/>
<path d="M33.8276 255.689H18.9141V270.759H33.8276V255.689Z" fill="#181425"/>
<path d="M48.7397 255.689H33.8262V270.759H48.7397V255.689Z" fill="#C6C6C6"/>
<path d="M63.6537 255.689H48.7402V270.759H63.6537V255.689Z" fill="white"/>
<path d="M78.5678 255.689H63.6543V270.759H78.5678V255.689Z" fill="white"/>
<path d="M93.2397 255.689H78.3262V270.759H93.2397V255.689Z" fill="#181425"/>
<path d="M108.154 255.689H93.2402V270.759H108.154V255.689Z" fill="#C6C6C6"/>
<path d="M123.068 255.689H108.154V270.759H123.068V255.689Z" fill="#181425"/>
<path d="M137.982 255.689H123.068V270.759H137.982V255.689Z" fill="white"/>
<path d="M152.894 255.689H137.98V270.759H152.894V255.689Z" fill="#181425"/>
<path d="M167.808 255.689H152.895V270.759H167.808V255.689Z" fill="#181425"/>
<path d="M182.722 255.689H167.809V270.759H182.722V255.689Z" fill="#181425"/>
<path d="M197.634 255.689H182.721V270.759H197.634V255.689Z" fill="#181425"/>
<path d="M212.548 255.689H197.635V270.759H212.548V255.689Z" fill="#181425"/>
<path d="M227.222 255.689H212.309V270.759H227.222V255.689Z" fill="#181425"/>
<path d="M242.134 255.689H227.221V270.759H242.134V255.689Z" fill="#181425"/>
<path d="M257.048 255.689H242.135V270.759H257.048V255.689Z" fill="white"/>
<path d="M271.962 255.689H257.049V270.759H271.962V255.689Z" fill="white"/>
<path d="M286.874 255.689H271.961V270.759H286.874V255.689Z" fill="#181425"/>
<path d="M331.617 255.689H316.703V270.759H331.617V255.689Z" fill="#181425"/>
<path d="M346.529 255.689H331.615V270.759H346.529V255.689Z" fill="#C6C6C6"/>
<path d="M361.443 255.689H346.529V270.759H361.443V255.689Z" fill="white"/>
<path d="M376.117 255.689H361.203V270.759H376.117V255.689Z" fill="white"/>
<path d="M391.029 255.689H376.115V270.759H391.029V255.689Z" fill="#181425"/>
<path d="M33.8276 270.759H18.9141V285.828H33.8276V270.759Z" fill="#181425"/>
<path d="M48.7397 270.759H33.8262V285.828H48.7397V270.759Z" fill="#C6C6C6"/>
<path d="M63.6537 270.759H48.7402V285.828H63.6537V270.759Z" fill="white"/>
<path d="M78.5678 270.759H63.6543V285.828H78.5678V270.759Z" fill="white"/>
<path d="M93.2397 270.759H78.3262V285.828H93.2397V270.759Z" fill="#181425"/>
<path d="M108.154 270.759H93.2402V285.828H108.154V270.759Z" fill="#181425"/>
<path d="M123.068 270.759H108.154V285.828H123.068V270.759Z" fill="#181425"/>
<path d="M137.982 270.759H123.068V285.828H137.982V270.759Z" fill="#181425"/>
<path d="M152.894 270.759H137.98V285.828H152.894V270.759Z" fill="#181425"/>
<path d="M167.808 270.759H152.895V285.828H167.808V270.759Z" fill="#E45C00"/>
<path d="M182.722 270.759H167.809V285.828H182.722V270.759Z" fill="#E45C00"/>
<path d="M197.634 270.759H182.721V285.828H197.634V270.759Z" fill="#E45C00"/>
<path d="M212.548 270.759H197.635V285.828H212.548V270.759Z" fill="#FF7C06"/>
<path d="M227.222 270.759H212.309V285.828H227.222V270.759Z" fill="#FF7C06"/>
<path d="M242.134 270.759H227.221V285.828H242.134V270.759Z" fill="#181425"/>
<path d="M257.048 270.759H242.135V285.828H257.048V270.759Z" fill="#181425"/>
<path d="M271.962 270.759H257.049V285.828H271.962V270.759Z" fill="#181425"/>
<path d="M331.617 270.759H316.703V285.828H331.617V270.759Z" fill="#181425"/>
<path d="M346.529 270.759H331.615V285.828H346.529V270.759Z" fill="#C6C6C6"/>
<path d="M361.443 270.759H346.529V285.828H361.443V270.759Z" fill="white"/>
<path d="M376.117 270.759H361.203V285.828H376.117V270.759Z" fill="white"/>
<path d="M391.029 270.759H376.115V285.828H391.029V270.759Z" fill="#181425"/>
<path d="M48.7397 285.828H33.8262V300.897H48.7397V285.828Z" fill="#181425"/>
<path d="M63.6537 285.828H48.7402V300.897H63.6537V285.828Z" fill="#181425"/>
<path d="M78.5678 285.828H63.6543V300.897H78.5678V285.828Z" fill="#181425"/>
<path d="M108.154 285.828H93.2402V300.897H108.154V285.828Z" fill="#181425"/>
<path d="M123.068 285.828H108.154V300.897H123.068V285.828Z" fill="#262B44"/>
<path d="M137.982 285.828H123.068V300.897H137.982V285.828Z" fill="#181425"/>
<path d="M152.894 285.828H137.98V300.897H152.894V285.828Z" fill="#181425"/>
<path d="M167.808 285.828H152.895V300.897H167.808V285.828Z" fill="#181425"/>
<path d="M182.722 285.828H167.809V300.897H182.722V285.828Z" fill="#181425"/>
<path d="M197.634 285.828H182.721V300.897H197.634V285.828Z" fill="#181425"/>
<path d="M212.548 285.828H197.635V300.897H212.548V285.828Z" fill="#181425"/>
<path d="M227.222 285.828H212.309V300.897H227.222V285.828Z" fill="#181425"/>
<path d="M242.134 285.828H227.221V300.897H242.134V285.828Z" fill="#181425"/>
<path d="M257.048 285.828H242.135V300.897H257.048V285.828Z" fill="#262B44"/>
<path d="M271.962 285.828H257.049V300.897H271.962V285.828Z" fill="#181425"/>
<path d="M346.529 285.828H331.615V300.897H346.529V285.828Z" fill="#181425"/>
<path d="M361.443 285.828H346.529V300.897H361.443V285.828Z" fill="#181425"/>
<path d="M376.117 285.828H361.203V300.897H376.117V285.828Z" fill="#181425"/>
<path d="M108.154 300.897H93.2402V315.967H108.154V300.897Z" fill="#181425"/>
<path d="M123.068 300.897H108.154V315.967H123.068V300.897Z" fill="#262B44"/>
<path d="M137.982 300.897H123.068V315.967H137.982V300.897Z" fill="#181425"/>
<path d="M242.134 300.897H227.221V315.967H242.134V300.897Z" fill="#181425"/>
<path d="M257.048 300.897H242.135V315.967H257.048V300.897Z" fill="#262B44"/>
<path d="M271.962 300.897H257.049V315.967H271.962V300.897Z" fill="#262B44"/>
<path d="M286.874 300.897H271.961V315.967H286.874V300.897Z" fill="#181425"/>
<path d="M93.2397 315.967H78.3262V331.036H93.2397V315.967Z" fill="#181425"/>
<path d="M108.154 315.967H93.2402V331.036H108.154V315.967Z" fill="#181425"/>
<path d="M123.068 315.967H108.154V331.036H123.068V315.967Z" fill="#181425"/>
<path d="M137.982 315.967H123.068V331.036H137.982V315.967Z" fill="#181425"/>
<path d="M257.048 315.967H242.135V331.036H257.048V315.967Z" fill="#181425"/>
<path d="M271.962 315.967H257.049V331.036H271.962V315.967Z" fill="#181425"/>
<path d="M286.874 315.967H271.961V331.036H286.874V315.967Z" fill="#181425"/>
<path d="M301.788 315.967H286.875V331.036H301.788V315.967Z" fill="#181425"/>
<path d="M78.5678 331.035H63.6543V346.104H78.5678V331.035Z" fill="#181425"/>
<path d="M93.2397 331.035H78.3262V346.104H93.2397V331.035Z" fill="#FF7C06"/>
<path d="M108.154 331.035H93.2402V346.104H108.154V331.035Z" fill="white"/>
<path d="M123.068 331.035H108.154V346.104H123.068V331.035Z" fill="white"/>
<path d="M137.982 331.035H123.068V346.104H137.982V331.035Z" fill="#FF7C06"/>
<path d="M152.894 331.035H137.98V346.104H152.894V331.035Z" fill="#181425"/>
<path d="M242.134 331.035H227.221V346.104H242.134V331.035Z" fill="#181425"/>
<path d="M257.048 331.035H242.135V346.104H257.048V331.035Z" fill="#FF7C06"/>
<path d="M271.962 331.035H257.049V346.104H271.962V331.035Z" fill="#FF7C06"/>
<path d="M286.874 331.035H271.961V346.104H286.874V331.035Z" fill="white"/>
<path d="M301.788 331.035H286.875V346.104H301.788V331.035Z" fill="white"/>
<path d="M316.703 331.035H301.789V346.104H316.703V331.035Z" fill="#181425"/>
<path d="M78.5678 346.104H63.6543V361.174H78.5678V346.104Z" fill="#181425"/>
<path d="M93.2397 346.104H78.3262V361.174H93.2397V346.104Z" fill="#E45C00"/>
<path d="M108.154 346.104H93.2402V361.174H108.154V346.104Z" fill="#E45C00"/>
<path d="M123.068 346.104H108.154V361.174H123.068V346.104Z" fill="#E45C00"/>
<path d="M137.982 346.104H123.068V361.174H137.982V346.104Z" fill="#E45C00"/>
<path d="M152.894 346.104H137.98V361.174H152.894V346.104Z" fill="#181425"/>
<path d="M242.134 346.104H227.221V361.174H242.134V346.104Z" fill="#181425"/>
<path d="M257.048 346.104H242.135V361.174H257.048V346.104Z" fill="#E45C00"/>
<path d="M271.962 346.104H257.049V361.174H271.962V346.104Z" fill="#E45C00"/>
<path d="M286.874 346.104H271.961V361.174H286.874V346.104Z" fill="#E45C00"/>
<path d="M301.788 346.104H286.875V361.174H301.788V346.104Z" fill="#E45C00"/>
<path d="M316.703 346.104H301.789V361.174H316.703V346.104Z" fill="#E45C00"/>
<path d="M331.617 346.104H316.703V361.174H331.617V346.104Z" fill="#181425"/>
<path d="M78.5678 360.931H63.6543V376H78.5678V360.931Z" fill="#181425"/>
<path d="M93.2397 360.931H78.3262V376H93.2397V360.931Z" fill="#181425"/>
<path d="M108.154 360.931H93.2402V376H108.154V360.931Z" fill="#181425"/>
<path d="M123.068 360.931H108.154V376H123.068V360.931Z" fill="#181425"/>
<path d="M137.982 360.931H123.068V376H137.982V360.931Z" fill="#181425"/>
<path d="M152.894 360.931H137.98V376H152.894V360.931Z" fill="#181425"/>
<path d="M242.134 360.931H227.221V376H242.134V360.931Z" fill="#181425"/>
<path d="M257.048 360.931H242.135V376H257.048V360.931Z" fill="#181425"/>
<path d="M271.962 360.931H257.049V376H271.962V360.931Z" fill="#181425"/>
<path d="M286.874 360.931H271.961V376H286.874V360.931Z" fill="#181425"/>
<path d="M301.788 360.931H286.875V376H301.788V360.931Z" fill="#181425"/>
<path d="M316.703 360.931H301.789V376H316.703V360.931Z" fill="#181425"/>
<path d="M331.617 360.931H316.703V376H331.617V360.931Z" fill="#181425"/>
</g>
<defs>
<filter id="filter0_d_172_2427" x="708" y="0" width="395.029" height="384" filterUnits="userSpaceOnUse" color-interpolation-filters="sRGB">
<feFlood flood-opacity="0" result="BackgroundImageFix"/>
<feColorMatrix in="SourceAlpha" type="matrix" values="0 0 0 0 0 0 0 0 0 0 0 0 0 0 0 0 0 0 127 0" result="hardAlpha"/>
<feOffset dy="4"/>
<feGaussianBlur stdDeviation="2"/>
<feComposite in2="hardAlpha" operator="out"/>
<feColorMatrix type="matrix" values="0 0 0 0 0 0 0 0 0 0 0 0 0 0 0 0 0 0 0.25 0"/>
<feBlend mode="normal" in2="BackgroundImageFix" result="effect1_dropShadow_172_2427"/>
<feBlend mode="normal" in="SourceGraphic" in2="effect1_dropShadow_172_2427" result="shape"/>
</filter>
<filter id="filter1_d_172_2427" x="0" y="0" width="395.029" height="384" filterUnits="userSpaceOnUse" color-interpolation-filters="sRGB">
<feFlood flood-opacity="0" result="BackgroundImageFix"/>
<feColorMatrix in="SourceAlpha" type="matrix" values="0 0 0 0 0 0 0 0 0 0 0 0 0 0 0 0 0 0 127 0" result="hardAlpha"/>
<feOffset dy="4"/>
<feGaussianBlur stdDeviation="2"/>
<feComposite in2="hardAlpha" operator="out"/>
<feColorMatrix type="matrix" values="0 0 0 0 0 0 0 0 0 0 0 0 0 0 0 0 0 0 0.25 0"/>
<feBlend mode="normal" in2="BackgroundImageFix" result="effect1_dropShadow_172_2427"/>
<feBlend mode="normal" in="SourceGraphic" in2="effect1_dropShadow_172_2427" result="shape"/>
</filter>
<clipPath id="clip0_172_2427">
<rect width="387.029" height="376" fill="white" transform="matrix(-1 0 0 1 1099.03 0)"/>
</clipPath>
<clipPath id="clip1_172_2427">
<rect width="387.029" height="376" fill="white" transform="translate(4)"/>
</clipPath>
</defs>
</svg>
